<?xml version="1.0" encoding="UTF-8" standalone="no"?>
<!-- Created with Inkscape (http://www.inkscape.org/) -->

<svg
   width="63.374626px"
   height="361.54477px"
   version="1.1"
   id="svg1"
   xmlns:inkscape="http://www.inkscape.org/namespaces/inkscape"
   xmlns:sodipodi="http://sodipodi.sourceforge.net/DTD/sodipodi-0.dtd"
   xmlns="http://www.w3.org/2000/svg"
   xmlns:svg="http://www.w3.org/2000/svg">
  <sodipodi:namedview
     id="namedview1"
     pagecolor="#ffffff"
     bordercolor="#cccccc"
     borderopacity="1"
     inkscape:showpageshadow="0"
     inkscape:pageopacity="1"
     inkscape:pagecheckerboard="0"
     inkscape:deskcolor="#d1d1d1"
     inkscape:document-units="mm"
     inkscape:zoom="0.2102413"
     inkscape:cx="118.91098"
     inkscape:cy="682.54905"
     inkscape:window-width="736"
     inkscape:window-height="480"
     inkscape:window-x="0"
     inkscape:window-y="25"
     inkscape:window-maximized="0"
     inkscape:current-layer="layer1" />
  <defs
     id="defs1" />
  <g
     inkscape:label="Layer 1"
     inkscape:groupmode="layer"
     id="layer1"
     transform="translate(-72.88506,32.933414)">
    <path
       fill-rule="evenodd"
       fill="#000000"
       fill-opacity="1"
       d="m 78.250249,112.08512 c -0.32041,1.01596 -0.65423,2.00711 -0.93742,3.01687 -0.0527,0.19741 -0.13745,0.62012 0.20154,0.64389 0.26974,0.0186 0.80925,-0.23358 0.80203,-0.34003 -0.0641,-1.09761 1.079,-2.21589 -0.0661,-3.32073 m 1.06556,14.74019 c -0.0206,-0.33797 -0.44442,-0.74001 -0.46509,-0.60978 -0.18809,1.2795 -1.78387,0.0196 -1.911,1.07797 -0.0682,0.5705 0.79997,1.19579 0.92604,1.10277 0.56121,-0.41444 1.60404,-0.49403 1.45005,-1.57096 M 91.372949,23.600601 c -0.50228,3.522266 0.0796,6.870898 0.91882,10.197827 -0.30491,-3.398242 -0.61185,-6.797516 -0.91882,-10.197827 m 5.46635,27.945582 c 0.0135,-3.996655 -0.21911,-8.070826 -1.35187,-12.050945 0.44752,4.017327 0.90229,8.033618 1.35187,12.050945 M 85.171779,13.072047 c 0.52917,4.898925 1.05833,9.799918 1.5875,14.699877 0.26974,-4.889624 -0.86609,-9.684163 -0.91054,-14.551049 -0.003,-0.204639 -0.40513,-0.297656 -0.67696,-0.148828 m 6.64869,-2.837037 c 0.34107,3.89227 0.68006,7.783505 1.02423,11.716081 1.34358,-4.045231 0.42788,-7.897194 -1.02423,-11.716081 m -0.11369,-10.87375636 c -0.41858,-0.54776904 0.45786,-0.94257804 0.17674,-1.47381104 -0.2377,-0.451651 -0.41032,-0.980818 0.32038,-0.98702 0.34624,-0.0021 0.57155,0.518832 0.49197,0.979787 -0.46509,2.72748104 1.16686,5.229653 0.85473,7.942667 -0.0475,0.42478 0.1881,0.689364 0.58188,0.513662 0.31006,-0.136425 0.43719,-0.248047 0.0951,-0.785482 -0.68731,-1.085204 0.47127,-3.489193 1.63814,-3.922239 0.74311,-0.275952 1.06659,0.373102 1.11413,0.808218 0.23773,2.197282 1.98438,4.031794 1.48725,6.414079 0.54983,-0.60048 0.185,-1.339453 0.38862,-1.971971 2.179711,0.807185 1.597821,2.872173 2.074281,4.4514054 1.7198,-0.949812 0.43926,-2.6520324 0.89918,-4.1434144 1.61127,1.946134 0.68522,4.4762124 2.07946,6.1608624 0.24081,-1.815909 0.27285,-3.8602284 1.24953,-5.8311684 1.12138,1.347721 1.45211,2.7016454 1.67742,4.2074974 1.33325,-3.0716494 1.78077,-6.4812604 3.75687,-9.3286324 1.37046,1.538926 0.28836,3.479893 1.34463,4.87929 0.62425,-1.673283 1.66398,-2.128036 2.58175,-1.130681 0.43098,-1.345655 -0.21394,-2.15904 -1.47071,-2.76262 1.08417,-0.763778 1.15548,-1.815912 1.20096,-2.99516796 0.185,-5.02294804 -0.64596,-10.00558904 -0.63252,-14.99029864 0.0103,-3.568775 -0.69556,-6.972184 -1.0821,-10.450008 -0.032,-0.287321 -0.29146,-0.55087 -0.57982,-0.803051 0.14573,0.826823 0.38655,1.631941 0.0424,2.802929 -0.48679,-1.329117 -0.70073,-2.386417 -0.59221,-3.486092 0.0424,-0.405143 0.62735,-0.138493 0.94671,-0.806152 0.8661,-1.802474 0.92914,-3.682462 1.39733,-5.587256 0.0878,2.015381 0.83613,3.643189 2.49494,5.110799 v -3.352767 c 1.53479,-0.08061 2.07429,1.606104 3.2122,1.629875 2.12184,0.04031 2.23553,1.318782 2.08773,2.843237 1.10898,0.260449 0.032,-1.551326 1.18546,-1.093473 0.84646,0.337964 0.28009,1.149284 0.46302,1.677417 0.60255,1.740462 0.13953,3.510896 0.3328,5.253426 0.0589,0.509529 0.16123,1.653646 -0.82269,0.445452 -0.185,-0.230478 -0.29042,-0.132291 -0.44132,-0.01241 -0.37827,0.29559 -0.41341,0.703834 -0.24908,1.08934 0.11886,0.282152 0.30179,0.577742 0.75138,0.405143 0.45992,-0.177768 0.95498,-0.763778 1.42317,0.0052 l -0.007,-0.02376 c 0.007,3.913971 -0.0558,7.810376 0.44959,11.7305476 0.21911,1.709457 0.31212,3.698999 -0.19844,5.418791 -0.27492,0.93120904 1.01286,1.58439904 0.0868,2.35851204 1.62264,1.73219496 0.2067,3.75997796 0.50849,5.65133596 0.58705,3.655589 0.44649,7.3711254 1.14515,11.0783924 0.67283,3.558439 1.048,7.262606 0.78135,11.015348 -0.24081,3.346566 0.44132,6.753076 0.65319,10.135816 0.30696,4.907193 1.18236,9.752375 1.59784,14.643034 0.1881,2.174544 0.31522,4.424535 0.63458,6.522598 0.36277,2.398821 0.74414,4.811078 1.05627,7.233669 0.36483,2.820498 0.18293,5.70611 1.48415,8.43566 0.44958,0.946711 0.42581,2.538346 -0.40205,3.722769 -0.54777,0.788583 -0.12712,1.605071 0.18294,2.324407 0.57877,1.361157 0.43305,1.908927 -0.91881,2.682007 -0.13953,0.08061 -0.3359,0.271818 -0.31936,0.386538 0.0444,0.32453 0.30902,0.751377 0.59738,0.584978 0.66663,-0.383439 1.15652,0.153995 1.70119,0.06305 0.24598,0.983919 -2.34715,0.82269 -0.75655,2.221053 0.15607,0.135392 1.20613,3.232877 1.22267,3.562575 0.0868,1.699119 0.19844,3.397207 0.20877,5.09633 0,0.414443 -0.21187,0.568438 -0.73277,0.15296 -0.31006,-0.24598 -0.28836,0.798918 -0.23564,0.824757 2.47633,1.147217 1.23816,3.428217 1.49241,5.183147 0.14573,0.99529 0.0289,2.05362 0.339,3.06028 0.0734,0.25011 0.22737,0.67282 0.12609,0.75344 -1.34152,1.09244 -0.60255,2.66444 -0.79065,3.95221 -0.26768,1.85725 0.0713,3.80959 0.23254,5.71335 0.18811,2.20452 0.0165,4.38113 -0.0847,6.58151 -0.12919,2.73988 -0.0579,5.53248 0.42892,8.34264 0.29869,1.73116 0.13746,3.81062 0.20877,5.70405 0.0744,1.99987 -0.14263,4.05866 0.66456,6.07094 0.45785,1.13585 0.0579,2.59313 0.0579,3.88504 0.005,5.08289 0.12712,10.15958 0.3731,15.23525 0.061,1.23196 -1.34359,0.82992 -1.4366,1.81384 -0.98702,-0.94155 0.53743,-2.096 -0.55294,-2.72749 -0.37827,-0.2191 -0.28319,0.83716 -0.95498,0.72244 0,-1.41387 0.005,-2.8422 -0.003,-4.27054 0,-0.12816 -0.11575,-0.29559 -0.0661,-0.37827 1.01906,-1.75493 1.34668,-3.70417 1.14101,-5.51801 -0.28112,-2.46703 -0.38654,-4.9506 -0.63252,-7.42074 -0.25425,-2.55695 -0.0289,-5.11906 -0.29662,-7.69875 -0.40204,-3.83749 -0.20877,-7.73906 -0.29145,-11.61376 -0.0124,-0.60358 0.27595,-1.46038 -0.88367,-1.37976 -1.16892,0.0817 -0.75861,0.99425 -0.709,1.52859 0.71727,7.83931 0.26251,15.69516 0.3607,23.54274 0.0475,3.46749 0.21394,6.98873 -0.10852,10.39317 -0.52917,5.56762 -0.0692,11.12903 -0.45785,16.69355 -0.22221,3.18327 0.27491,6.50297 0.12919,9.74411 -0.19844,4.377 0.005,8.77259 0.25424,13.09378 0.24288,4.25297 -0.0103,8.59585 0.93638,12.81575 0.0289,0.13746 -0.11369,0.31419 -0.21187,0.56327 0.82579,0.005 1.29708,-0.48162 1.29191,-1.04696 -0.0269,-4.12481 -0.14883,-8.24756 -0.21498,-12.37341 -0.0444,-2.99206 -0.14262,-5.98723 -0.0238,-8.97516 0.0527,-1.33325 0.0827,-2.6727 -0.22737,-3.92224 -0.54984,-2.20555 0.27802,-4.31395 0.14779,-6.50296 -0.28525,-4.778 -0.21394,-9.57771 -0.27491,-14.36812 -0.005,-0.44648 0.0827,-0.89297 0.12402,-1.32188 0.77618,-0.0599 0.6966,0.45269 0.66456,0.81132 -0.12713,1.38286 0.0393,2.33577 1.81797,1.62471 0.57671,-0.23048 0.82786,0.41031 0.44442,0.58808 -1.78387,0.82165 -0.91571,2.3058 -0.91777,3.49436 -0.003,0.63768 0.69556,1.38596 -0.60358,0.62528 -0.0372,-0.0238 -0.0879,-0.0341 -0.13023,-0.0527 -0.0548,0.1819 -0.10852,0.3607 -0.16123,0.54157 1.31775,0.3669 -0.98392,2.32234 1.06143,2.41949 0.22738,0.0114 1.09038,-0.79478 0.75655,0.28009 -0.185,0.61391 1.079,1.45934 -0.45785,1.92236 -1.01906,0.30799 -1.66192,1.73323 -0.524,2.36678 1.98954,1.11208 0.69556,2.47324 0.74414,3.75481 0.0785,2.21589 -1.10898,4.27674 -0.3235,6.65696 0.6718,2.03088 0.8444,4.38733 -0.32039,6.41924 -0.36174,0.63769 0.12195,0.35037 0.22531,0.5178 0.53743,0.86196 1.15858,1.79524 -0.30696,2.38539 -0.73587,0.29558 -0.7059,0.47542 -0.35967,1.2547 0.8599,1.94407 1.3839,4.03696 1.48415,6.19704 0.0289,0.57361 -0.25425,1.11724 -0.65629,1.38492 -0.40204,0.27182 -0.64492,0.55088 -0.5209,0.94362 0.57361,1.79834 -0.29352,3.7176 0.48163,5.4715 0.16122,0.37103 -0.0238,0.58704 -0.032,0.87746 -0.22737,6.3593 -0.5426,12.69898 -0.26665,19.08825 0.16123,3.72795 0.18501,7.76075 -1.17512,11.31921 -0.57671,1.51308 -1.16995,2.93108 -1.11104,4.48448 0.10542,2.90007 0,5.78879 -0.0475,8.6837 -0.008,0.55293 -0.0558,1.00045 -0.25735,1.50792 -1.38906,3.45096 0.10335,7.23368 -1.17719,10.71872 -0.0506,0.14057 0.0847,0.90744 0.7307,0.88368 0.26459,-0.008 0.5023,-0.93123 0.78032,-0.0455 0.14262,0.46095 -0.1664,0.83923 -0.55294,0.93429 -0.25115,0.0661 -0.70383,-0.26974 -0.64079,0.28631 0.19844,1.7167 -1.09761,3.51605 0.26459,5.15109 0.12505,0.1478 0.32556,0.24599 0.10335,0.36796 -1.9265,1.0418 -1.11621,2.80395 -1.19063,4.347 -0.0444,0.95189 -0.0155,2.06602 -1.82004,1.68775 0.99735,0.47336 1.27744,0.78549 1.15859,1.86759 -0.32763,3.03032 -0.87024,6.12264 -0.90744,9.06198 -0.0372,2.90525 -1.21957,5.47772 -1.14308,8.3902 0.11885,4.56406 -1.0449,9.09608 -1.91823,13.61569 -0.17984,-1.34977 -0.1664,-2.63755 0.0661,-4.00801 0.28836,-1.71463 0.0692,-3.54087 -0.11885,-5.29995 -0.23048,-2.16421 -0.65319,-4.58576 0.41237,-6.3314 0.80719,-1.32601 0.19844,-1.36012 -0.43098,-1.8655 -0.58704,2.21692 -0.50023,4.64881 -1.82831,6.628 -1.02629,1.52861 -0.49196,3.16675 -0.55294,4.73358 -0.1664,4.02352 -1.10587,7.97677 -1.01286,12.01476 0.0289,1.18443 -1.40043,1.67431 -1.21439,3.14296 0.10542,0.84336 -0.43719,2.02366 -0.40514,3.09025 0.0238,0.72451 -0.28319,0.98703 -0.96015,0.88678 -0.55087,-0.0827 -1.01596,-0.11679 -0.76275,-0.97153 0.39688,-1.34358 -0.84852,-0.94154 -1.0635,-0.62735 -1.08727,1.59578 -0.93431,-0.2377 -1.22266,-0.46818 -0.1633,-0.13435 0.18293,-0.78549 0.0775,-1.13482 -0.27285,-0.90226 1.10588,-2.32543 -0.84439,-2.77297 -0.12196,-0.0268 -0.26768,-0.99735 -0.19017,-1.63192 0.38344,-3.2122 0.61908,-6.44303 0.90227,-9.66867 0.0847,-0.9684 0.0765,-0.99941 1.36219,-1.20097 0.67489,-0.10541 0.65112,-0.55602 0.66456,-1.03145 0.031,-1.30741 -0.13539,-2.62517 0.13953,-3.95634 -1.2144,1.03248 0.18293,2.86803 -1.29605,3.87881 -0.69556,-1.24333 -0.90744,-2.63239 -0.75448,-4.04005 0.0558,-0.48678 0.10336,-0.72451 -0.38343,-0.8599 -0.75345,-0.21187 -0.53951,0.40204 -0.52917,0.70385 0.1695,4.77591 -1.10588,9.42163 -1.29915,14.17897 -0.10542,2.66752 -0.57154,5.33405 -0.53123,8.02743 0.0103,0.5829 -0.44752,0.76274 -0.80202,1.04283 0.17467,-1.11623 -1.49241,-0.63254 -1.4211,-1.60613 0.1881,-2.56106 -0.31419,-5.08288 -0.43098,-7.62537 -0.0424,-0.88366 1.69602,-1.05315 0.83302,-2.23036 -0.10335,-0.13745 0.008,-0.55293 -0.061,-0.57359 -3.12435,-0.97462 -1.11621,-3.27628 -1.09243,-4.86585 0.0506,-3.56465 0.86506,-7.09932 0.38653,-10.71562 -0.11162,-0.86302 -0.59014,-0.51369 -0.88676,-0.66458 -0.98392,-0.49713 -1.97094,0.56639 -3.03961,0.0661 -0.17984,-0.0847 -0.68316,0.57981 -0.13023,1.05318 0.65423,0.55605 0.12713,0.9126 -0.23771,1.30432 -0.29869,0.32244 -0.64595,0.5271 -1.07177,0.37308 -0.62941,-0.22735 -0.26148,-0.80716 -0.37517,-1.21954 -0.59324,-2.16937 -0.29662,-4.45556 -0.67489,-6.65491 -1.12758,3.42927 -0.0692,6.94532 -0.75654,10.33735 -0.46096,2.26759 -1.14619,4.51446 -2.16215,6.61459 -0.28008,0.57671 -0.95704,1.10072 -1.6061,0.86611 -0.73794,-0.26768 0,-0.91882 -0.0393,-1.40766 -0.0744,-0.89712 -0.2253,-1.69603 0.72967,-2.56418 1.26814,-1.14827 -0.0496,-2.75953 -0.1447,-4.17238 -0.032,-0.45267 -0.0879,-1.04489 -0.33589,-1.55027 -1.516181,0.35965 0.21601,2.0629 -1.05109,2.54246 -0.751391,-0.66971 -0.534351,-1.34977 -0.147801,-2.14871 0.259401,-0.53742 0.240801,-1.21129 -0.38655,-1.61642 -0.1323,-0.0879 -0.46509,-0.11369 -0.51057,-0.0424 -0.32039,0.49506 -0.88882,1.05833 -0.54983,1.61954 0.81132,1.34876 -0.76274,2.68822 -0.003,3.86022 0.63458,0.97877 0.86506,1.83038 0.37312,2.86805 -0.12404,0.26459 0.61391,0.80098 -0.24083,0.81751 -0.31728,0.005 -0.74826,-0.008 -0.93948,-0.20359 -1.35496,-1.37872 -1.55546,0.0548 -1.7146,0.7989 -0.30697,1.40767 -0.8227,2.76781 -0.8568,4.25403 -0.0103,0.59841 0.34933,1.73114 -1.10588,1.86862 -0.25736,0.0238 -0.99219,1.89444 -0.83095,3.08197 0.0393,0.29869 0.31729,0.91054 0.0341,0.8413 -1.95233,-0.45993 -1.99988,1.50791 -3.01585,2.19625 -0.90538,0.61082 -0.51057,-1.03457 -1.43455,-0.7121 -0.23254,0.30178 -0.0475,1.33427 -1.31463,1.18853 0.47646,-0.99009 0.76999,-1.93992 0.95499,-2.94555 0.24079,-1.29603 -0.41032,-1.1503 -1.18031,-1.12964 -0.19016,0.005 -0.2377,-0.84645 -0.54155,-0.10541 -0.0961,0.2377 -0.0164,0.53949 -0.0661,0.80201 -0.23047,1.22989 -1.55133,2.01022 -1.38906,3.40238 -0.50025,-0.0475 -0.83923,1.36528 -1.41078,0.23254 -0.63252,-1.25677 -2.51354,-2.0929 -1.33117,-4.04833 0.27283,-0.44649 -0.20051,-1.27228 -0.97566,-1.48104 -0.96842,-0.26251 -0.39481,0.68213 -0.73069,0.98391 -0.43098,0.38137 -0.0951,1.38906 -1.25678,1.49447 0.0164,-1.51307 -0.85164,-2.87319 -0.24804,-4.53408 0.33589,-0.92398 0.17465,-2.06396 -1.04595,-2.76572 -0.35965,-0.20878 -0.52295,-1.26711 -0.52605,-2.04742 -0.0103,-2.14562 0.0816,-4.27882 0.37,-6.40064 0.14573,-1.07178 -0.0579,-2.14249 -0.0476,-3.20601 0.0114,-1.21748 -0.10541,-2.36575 0.40825,-3.52433 0.17672,-0.39997 0.2005,-0.95809 0.092,-1.38907 -0.72242,-2.77812 0.0692,-5.55934 -0.032,-8.33437 -0.0289,-0.80201 0.21497,-1.60404 -0.51779,-2.23861 -0.11369,-0.0982 -0.0982,-0.34417 -0.14367,-0.52091 2.71198,-0.28112 0.18606,-1.5906 0.15089,-2.01436 -0.38859,-4.99504 -0.38343,-9.95285 0.0713,-14.94274 0.15914,-1.73839 -0.0951,-3.56981 -0.21085,-5.31855 -0.22842,-3.39719 0.59737,-6.73137 0.0786,-10.17611 -0.23772,-1.60094 0.0796,-3.60598 0.33383,-5.37332 0.19844,-1.38906 -0.44752,-2.50322 -0.39172,-3.7734 0.14574,-3.21223 0.32557,-6.4234 0.35761,-9.6387 0.031,-3.35999 0.10335,-6.74171 -0.20672,-10.08001 -0.24286,-2.67581 -0.061,-5.29167 -0.0206,-7.94576 0.0475,-3.16054 0.30387,-6.34174 0.0661,-9.50847 -0.11162,-1.42834 0.17468,-2.8267 0.15296,-4.26331 -0.0744,-4.92683 -0.16949,-9.85779 -0.10541,-14.79289 0.061,-4.51342 0.30385,-9.05991 -0.0164,-13.57023 -0.22219,-3.09542 -0.38859,-6.18567 -0.30178,-9.27592 0.0217,-0.78755 -1.18237,-1.53996 -0.0765,-2.33681 0.0455,-0.032 -0.0135,-0.3483 -0.0682,-0.36277 -2.37403,-0.63975 -0.61185,-2.1425 -0.65111,-3.23598 -0.0455,-1.30224 0.0558,-2.61069 0.13745,-3.91397 0.22219,-3.45509 -1.11414,-6.85023 -0.75449,-10.22056 0.35452,-3.3228 -0.1085,-6.59082 -0.0393,-9.87537 0.0765,-3.46852 0.46611,-6.98976 -0.1292,-10.52339 -0.52401,-3.08715 0.0734,-6.29626 -0.27284,-9.45059 -0.32041,-2.93522 0.0238,-5.89318 -0.0661,-8.84804 -0.13229,-4.20129 -0.12198,-8.453226 -0.17778,-12.668988 -0.0289,-2.321306 -0.16639,-4.756298 -0.63976,-7.117911 -0.31729,-1.561663 -0.11679,-3.225644 -0.14261,-4.845182 -0.0114,-0.688332 0.4599,-0.704868 0.96015,-0.688332 0.72242,0.02585 0.62735,0.561208 0.64286,1.020093 0.0744,2.103231 0.46818,4.258138 0.13745,6.295223 -0.55812,3.414779 0.39687,6.706569 0.32038,10.07277 -0.0848,3.667997 1.06662,7.306017 0.21704,11.125937 1.85208,-0.99736 1.01079,-2.56005 1.0418,-3.75378 0.10337,-4.11654 0.0351,-8.241353 -0.12092,-12.357899 -0.0744,-1.923397 -0.70694,-3.832323 -0.70694,-5.747451 -0.005,-3.512966 0.45786,-7.031096 -0.46508,-10.505819 -0.19119,-0.716235 0.33588,-1.228865 0.61909,-1.816944 1.04696,0.244946 0.21911,1.260904 0.84336,1.649511 0.12195,-0.720368 0.32864,-1.430404 0.32864,-2.138371 0,-0.456819 0.29872,-1.045929 -0.25733,-1.401463 -0.1447,-0.09095 -0.47027,-0.145727 -0.55295,-0.06098 -0.40926,0.429948 0.003,0.943613 -0.15605,1.43247 -1.18753,-2.871142 -0.92089,-5.86114 -0.77722,-9.021669 0.70591,0.938442 0.81751,1.882055 0.97875,2.828766 0.6904,-2.334742 0.41031,-4.564063 -0.52917,-7.005257 -0.0217,1.260904 -0.59013,2.205551 -0.49712,3.284554 -0.16434,-2.15904 -1.19063,-4.282943 0.24288,-6.469888 0.43924,-0.66766 0.52401,-2.071193 -0.0744,-2.478403 -0.97875,-0.66766 -0.47541,-1.457274 -0.62424,-2.150774 -0.81753,-3.834389 0.14883,-7.695652 -0.0631,-11.52281 -0.20878,-3.81062 -1.09865,-7.581966 -1.36011,-11.392585 -0.20156,-2.946591 -0.85164,-5.852875 -0.65114,-8.855274 0.10647,-1.584399 -0.0103,-3.398242 -0.48369,-4.811077 -0.99528,-2.980695 -0.28628,-6.035807 -0.95808,-8.9937644 -0.1478,-0.639755 0,-2.179712 1.17203,-2.155942 0.8754,0.0155 1.13792,1.175124 1.15342,2.069124 0.0289,1.5471934 0.0455,3.0943844 -0.005,4.6395114 -0.0289,0.830956 0.0951,1.60197 0.51572,2.305802 0.1137,0.189137 0.26771,0.543636 0.585,0.380338 0.20875,-0.108519 0.51056,-0.424781 0.47127,-0.566372 -0.56636,-2.069127 0.9891,0.170532 1.07903,-0.659392 0.0827,-0.912606 -1.14517,-0.299723 -1.37253,-0.970484 2.16937,-1.042831 1.05005,-2.980695 1.08209,-4.4968824 0.0527,-2.794661 -0.33588,-5.632733 2.01539,-7.783504 0.46818,-0.430983 0.42891,-1.07900596 0.89503,-1.77353696 1.27228,2.36058096 0.8599,4.90926196 1.7167,7.32358496 0.57152,-0.931209 0.093,-1.822112 0.68006,-2.518709 0.24391,-0.289388 0.35139,-0.794785 0.75136,-0.853694 0.63254,-0.09302 0.45786,0.478522 0.53435,0.837157 0.032,0.139526 -0.12919,0.425813 0.22529,0.389641 -0.14261,-0.782383 0.87334,-0.479557 0.94674,-1.000455 0.0403,-0.285255 -0.0951,-0.596347 -0.15299,-0.89607 -0.32038,0.257347 -0.92604,0.380339 -0.56946,-0.18397 1.34152,-2.11666696 -0.0785,-4.711856 1.47897,-6.725168 1.71979,0.681093 -1.10794,2.173509 0.60875,2.97552704 0.81545,-0.11678904 -0.19534,-2.00814504 0.99529,-1.69395204 0.81444,0.216006 0.60565,1.513086 1.10794,2.17351004 0.30697,-0.502296 0.4,-1.60610304 1.41904,-0.460955 0.30387,0.343133 0.88884,0.64389 1.45727,0.260451 -1.28569,1.210262 -0.17984,2.77398896 -0.60563,4.12171096 -0.10647,0.337965 -0.10853,0.830958 0.48368,0.902271 0.73586,0.08785 0.75137,-0.434083 0.6935,-0.901237 -0.16639,-1.377693 -0.38655,-2.74815296 -0.58705,-4.12171296"
       id="path83"
       style="stroke-width:0.264583" />
  </g>
</svg>
