<svg width="158" xmlns="http://www.w3.org/2000/svg" height="25" fill="none"><path d="M3.304,16.112C3.699,15.838,3.083,15.308,3.588,15.068C3.667,15.031,3.441,14.843,3.256,14.841C2.651,14.830,2.848,15.363,2.754,15.639C2.622,16.022,3.124,15.886,3.304,16.112ZM13.317,9.885C13.637,9.386,14.429,9.619,14.412,8.914C14.411,8.795,14.246,8.397,14.078,8.526C13.701,8.811,13.080,9.001,13.317,9.885ZM28.742,19.719C28.742,20.246,28.118,20.790,28.628,21.181C28.990,21.459,29.276,20.815,29.729,20.555C29.112,20.546,28.784,20.298,28.742,19.719ZM77.561,19.099C78.005,19.076,78.247,18.827,78.262,18.494C78.277,18.146,77.849,18.047,77.630,18.004C77.276,17.937,77.186,18.333,77.187,18.594C77.190,18.803,77.202,19.155,77.561,19.099ZM124.143,3.649C125.021,4.648,125.157,4.643,126.207,3.643C125.506,3.421,124.856,3.495,124.143,3.649ZM113.628,17.969C112.986,17.348,112.365,17.281,111.780,18.055C112.455,18.816,113.052,18.515,113.628,17.969ZM74.584,19.110C74.953,18.758,75.745,19.073,76.026,18.422C76.094,18.264,75.794,17.985,75.545,18.080C75.005,18.285,74.152,17.929,73.990,18.825C73.933,19.139,74.257,19.129,74.584,19.110ZM147.512,6.449C146.938,6.176,146.329,6.189,145.739,6.261C145.025,6.346,144.588,5.792,143.988,5.628C143.835,5.587,143.716,5.599,143.675,5.750C143.634,5.902,143.567,6.153,143.637,6.209C143.838,6.367,144.091,6.507,144.341,6.550C145.188,6.691,146.047,6.761,146.892,6.913C147.327,6.990,147.391,6.723,147.512,6.449ZM36.684,20.105C36.676,19.992,36.669,19.882,36.663,19.771C35.193,19.771,33.727,19.774,32.259,19.765C32.077,19.764,31.835,19.600,31.825,19.934C31.819,20.191,32.039,20.176,32.244,20.229C32.967,20.418,33.884,20.143,34.333,21.033C34.352,21.071,34.543,20.998,34.618,21.038C35.338,21.430,35.077,20.333,35.309,20.503C36.078,21.067,36.149,19.982,36.684,20.105ZM146.678,19.561C145.749,20.012,144.803,20.391,143.829,19.572C143.782,19.532,143.071,20.141,143.065,20.663C143.059,20.920,143.071,21.237,142.820,21.198C141.687,21.022,140.887,21.967,139.838,22.001C138.117,22.055,136.399,22.248,134.670,22.105C133.773,22.029,132.860,21.973,131.978,22.299C131.549,22.458,131.113,22.223,130.694,22.227C127.453,22.254,124.214,22.336,120.974,22.401C119.756,22.424,118.526,22.139,117.322,22.423C115.898,22.761,114.445,22.564,113.039,22.520C111.719,22.479,110.373,22.935,109.036,22.401C108.581,22.219,108.015,22.777,107.428,22.658C106.550,22.479,105.703,22.357,104.786,22.677C104.178,22.890,103.467,22.959,102.797,23.040C101.626,23.180,100.550,22.918,99.440,22.821C98.996,22.782,98.663,22.754,98.179,22.928C97.358,23.222,96.343,23.440,95.464,22.884C95.197,22.715,94.928,22.652,94.742,22.865C94.212,23.472,93.528,23.373,92.930,23.179C92.277,22.965,91.652,22.888,91.010,23.050C90.539,23.171,90.107,23.199,89.677,22.955C89.593,22.907,89.444,22.835,89.403,22.867C88.675,23.454,87.630,23.151,86.921,23.700C86.536,23.997,86.100,23.828,85.946,23.697C85.009,22.891,83.891,23.099,82.913,23.283C81.886,23.477,80.885,23.114,79.857,23.457C78.107,24.040,76.294,23.319,74.521,23.483C72.690,23.651,70.834,23.133,69.025,23.736C68.384,23.950,67.931,24.649,67.124,24.433C66.938,24.383,66.600,24.532,66.563,24.348C66.381,23.383,65.515,23.665,65.013,23.631C62.378,23.453,59.725,23.573,57.100,23.696C54.257,23.828,51.418,23.506,48.601,23.780C47.248,23.911,46.125,23.493,44.936,23.125C44.147,22.882,43.569,23.088,43.111,23.772C42.950,24.014,42.599,24.067,42.291,24.044C39.870,23.858,37.447,24.122,35.057,24.320C33.716,24.432,32.342,24.493,30.992,24.670C30.744,24.704,30.471,24.579,30.213,24.519C29.816,24.426,29.486,24.396,29.095,24.688C28.315,25.270,27.677,25.005,27.142,24.168C26.856,23.720,26.335,23.427,25.712,23.371C26.016,24.656,25.798,24.885,24.338,24.775C23.721,24.730,23.105,24.784,22.482,24.689C22.006,24.616,21.800,24.423,21.625,24.034C21.335,23.390,22.079,23.890,22.190,23.511C22.336,23.011,23.436,23.292,23.370,22.413C23.770,22.385,24.201,22.251,24.558,22.359C24.908,22.466,24.609,22.751,24.537,22.986C24.490,23.142,24.712,23.376,24.827,23.601C25.785,23.207,25.568,21.880,26.611,21.576C26.328,21.251,25.998,21.323,25.728,21.188C26.006,21.165,26.294,21.160,26.571,21.107C26.813,21.060,27.184,21.086,27.164,20.736C27.151,20.512,27.019,20.293,26.639,20.273C26.267,20.251,26.037,19.580,25.497,19.994C25.378,20.085,25.247,19.929,25.254,19.781C25.285,19.171,24.938,18.823,24.437,18.547C23.890,18.246,24.649,18.132,24.553,17.858C23.827,18.071,23.124,17.669,22.388,17.815C22.111,17.870,21.843,17.660,21.871,17.337C21.915,16.864,21.565,16.916,21.288,16.842C20.939,16.747,20.531,16.750,20.441,17.103C20.330,17.528,20.927,17.263,21.137,17.556C20.747,17.816,20.290,17.819,19.956,18.088C19.686,18.307,19.190,18.372,19.030,18.100C18.472,17.152,18.373,17.775,18.172,18.280C18.084,18.503,17.870,18.570,17.693,18.376C17.185,17.817,16.498,17.895,15.857,17.884C15.255,17.872,14.831,17.704,14.440,17.208C14.030,16.686,13.350,16.882,13.156,17.516C12.909,18.324,12.792,17.391,12.659,17.485C12.001,17.943,11.323,17.517,10.660,17.556C10.330,17.576,10.357,17.556,9.968,17.206C9.772,17.032,9.522,17.182,9.381,17.403C8.826,18.266,8.078,17.991,7.543,17.524C7.156,17.183,6.827,17.259,6.579,17.411C5.920,17.816,5.279,17.443,4.651,17.503C3.486,17.615,2.541,16.631,1.317,17.011C0.878,17.147,0.077,17.069,0.444,16.142C0.468,16.082,0.499,15.978,0.472,15.956C-0.787,14.913,0.853,14.542,1.013,13.830C1.086,13.505,1.505,13.370,1.947,13.518C2.178,13.596,2.527,13.968,2.778,13.418C2.978,12.979,2.971,12.710,2.648,12.290C2.338,11.887,1.459,11.926,1.684,11.071C2.058,11.031,2.458,11.320,2.891,11.040C2.721,10.564,2.249,10.465,1.838,10.336C1.060,10.093,1.251,9.508,1.400,9.035C1.562,8.522,1.291,7.623,2.352,7.727C2.951,7.787,3.426,7.701,3.351,6.948C3.317,6.597,3.586,6.652,3.789,6.552C4.709,6.095,5.777,5.983,6.602,5.289C6.953,4.996,7.432,4.833,7.788,5.444C8.127,6.028,8.814,5.867,9.328,5.893C9.731,5.911,9.975,5.518,9.944,4.979C9.919,4.550,10.357,4.277,10.805,4.393C11.101,4.469,11.811,4.298,11.408,5.124C11.245,5.457,11.848,5.493,12.070,5.378C12.788,5.003,13.195,5.385,13.594,5.872C13.616,5.897,13.627,5.930,13.643,5.960C13.880,6.385,14.229,6.134,14.531,6.085C14.673,6.063,14.689,5.936,14.645,5.772C14.493,5.209,14.090,5.827,13.864,5.612C14.087,5.007,14.407,4.476,14.777,3.967C14.911,3.780,14.959,3.541,15.279,3.653C15.581,3.759,15.562,3.950,15.493,4.209C15.338,4.801,15.661,5.133,16.134,5.472C16.476,5.719,16.780,5.993,16.990,5.522C17.105,5.260,17.773,4.735,16.895,4.476C16.457,4.350,16.670,3.706,16.134,3.601C17.987,2.972,19.906,2.843,21.745,2.925C22.559,2.961,23.296,2.760,24.073,2.762C24.973,2.763,25.872,2.599,26.775,2.525C27.378,2.476,27.990,2.394,28.587,2.449C29.043,2.488,29.606,2.500,29.722,3.182C29.756,3.381,30.018,3.571,30.220,3.696C30.284,3.734,30.565,3.578,30.621,3.454C30.774,3.124,30.402,2.992,30.131,2.662C31.021,2.764,31.758,2.837,32.435,3.170C32.818,3.358,33.014,3.202,33.069,2.866C33.151,2.349,33.396,2.027,33.945,2.052C36.397,2.168,38.817,1.758,41.254,1.675C45.520,1.530,49.790,1.484,54.058,1.408C54.861,1.395,55.682,1.382,56.458,1.294C57.467,1.177,58.145,1.262,58.392,2.321C58.449,2.571,58.519,2.506,58.709,2.460C59.063,2.376,59.437,2.366,59.791,2.560C59.844,1.349,60.061,1.169,61.206,1.158C63.365,1.134,65.519,1.064,67.679,0.891C70.567,0.660,73.464,0.499,76.383,0.577C77.816,0.615,79.312,0.195,80.797,0.222C83.302,0.267,85.798,0.120,88.315,0.239C90.777,0.355,93.306,0.354,95.801,0.071C97.367,-0.107,98.955,0.104,100.527,0.124C102.268,0.146,104.014,0.168,105.750,0.220C109.893,0.345,114.033,0.570,118.171,0.802C120.941,0.958,123.711,1.177,126.477,1.402C129.510,1.650,132.584,1.719,135.560,2.272C138.240,2.768,141.009,2.727,143.617,3.594C143.926,3.697,144.303,3.687,144.502,3.998C145.067,4.886,145.747,3.645,146.329,4.105C146.587,3.675,146.053,3.716,145.874,3.489C146.280,3.427,146.599,3.300,146.728,3.796C146.931,4.555,147.559,4.697,148.257,4.819C150.755,5.259,153.304,5.482,155.715,6.344C155.942,6.426,156.146,6.501,156.264,6.776C154.092,7.194,151.914,6.018,149.574,6.695C150.544,7.466,151.512,7.025,152.354,7.335C152.723,7.470,153.172,7.539,153.127,7.940C153.058,8.531,152.544,8.101,152.237,8.174C151.757,8.287,151.477,8.022,151.232,7.697C151.003,7.389,150.684,7.448,150.597,7.697C150.305,8.536,149.586,8.714,148.631,8.891C149.531,9.404,150.295,9.653,151.088,9.724C152.386,9.844,153.626,10.113,154.889,10.448C155.726,10.669,156.635,10.733,157.468,11.079C158.058,11.325,158.178,11.439,157.725,12.114C156.822,13.459,155.554,13.015,154.390,13.086C153.758,13.125,153.132,12.981,153.339,13.934C153.193,13.926,153.103,13.950,153.067,13.916C152.313,13.235,152.170,13.230,151.282,13.484C150.906,13.592,150.496,13.774,150.071,13.504C149.681,13.256,149.182,13.370,149.036,13.720C148.811,14.266,149.486,14.010,149.665,14.212C149.974,14.557,150.362,14.469,150.742,14.433C150.734,14.541,150.750,14.613,150.720,14.650C150.474,14.943,149.838,14.482,149.808,14.998C149.784,15.403,150.310,15.588,150.660,15.691C151.165,15.840,151.532,16.328,151.503,16.586C151.449,17.055,150.848,17.181,150.381,17.246C149.989,17.301,149.512,17.004,149.265,17.596C149.239,17.659,148.766,17.594,148.528,17.511C147.590,17.178,146.620,17.242,145.671,17.143C144.826,17.055,144.032,17.556,143.203,17.173C142.956,17.059,142.551,17.241,142.230,17.326C141.725,17.461,142.052,17.677,142.078,17.972C142.118,18.463,141.350,18.122,141.039,18.489C141.222,18.639,141.410,18.799,141.603,18.952C141.979,19.250,141.979,19.247,142.218,18.720C142.355,18.412,142.720,18.426,142.921,18.431C143.709,18.454,144.249,17.646,145.128,17.907C145.858,18.122,146.085,18.635,146.278,19.226C146.352,19.451,146.473,19.556,146.678,19.561Z" fill-rule="evenodd" style="fill: rgb(0, 0, 0); fill-opacity: 1;" class="fills"/></svg>