<?xml version="1.0" encoding="UTF-8" standalone="no"?>
<!-- Created with Inkscape (http://www.inkscape.org/) -->

<svg
   width="66.108208px"
   height="373.89206px"
   version="1.1"
   id="svg1"
   xmlns="http://www.w3.org/2000/svg"
   xmlns:svg="http://www.w3.org/2000/svg">
  <defs
     id="defs1" />
  <g
     id="layer1"
     transform="translate(-72.135913,38.533578)">
    <path
       fill-rule="evenodd"
       fill="#000000"
       fill-opacity="1"
       d="m 76.541415,109.94521 c -0.003,-1.74667 1.03148,-3.01172 -0.10851,-4.54855 -0.0899,1.48931 -1.2919,2.70679 0.10851,4.54855 M 117.2335,99.704992 c -0.14263,-0.47852 -0.2346,-0.94464 -0.92604,-1.01594 -0.83613,-0.0868 -0.79891,0.617 -0.96014,1.02732 -0.28837,0.732758 0.48162,1.007688 0.87333,1.060398 0.57153,0.0796 0.79066,-0.55812 1.01285,-1.071778 m 5.84772,103.635018 c -0.74933,0.0372 -0.70075,0.52401 -0.67696,1.00563 0.031,0.709 0.20875,1.35186 1.01285,1.47587 0.61082,0.0951 0.90538,-0.59013 0.83611,-0.87228 -0.15605,-0.65423 -0.38344,-1.40766 -1.172,-1.60922 m -0.26771,-19.61843 c -0.19015,0.8785 -0.52294,1.76424 0.0372,2.56625 0.17259,0.25114 -0.0289,0.77515 0.46818,0.7617 0.47956,-0.0156 0.57981,-0.43407 0.7493,-0.81957 0.58706,-1.3312 -1.07177,-1.51929 -1.25471,-2.50838 m -4.72011,-30.36094 c 0.032,1.35393 1.14618,1.03458 1.77559,1.39941 0.59016,0.34414 0.70385,-0.093 0.7121,-0.52401 0.0259,-1.18753 -1.47897,-0.68522 -1.75493,-1.55855 -0.2749,0.25423 -0.54983,0.50847 -0.73276,0.68315 m 6.03271,109.56335 c 0.57465,-1.14311 1.20923,-1.96577 0.6594,-2.90216 -0.20672,-0.35243 -0.94983,-0.22738 -1.25161,0.15295 -0.76275,0.96327 -0.0135,1.69913 0.59221,2.74921 m -29.789375,57.63988 c 0.0217,-1.4056 0.0156,-2.80189 0.29147,-4.19405 0.12919,-0.64804 -0.42376,-0.74104 -0.92605,-0.72451 -0.3235,0.007 -0.83613,0.0868 -0.49815,0.52089 1.04076,1.32292 0.15089,3.01895 1.13273,4.39767 m 1.29088,-203.51213 c -0.1478,-0.90744 -0.007,-2.04534 -0.73483,-1.91305 -0.99735,0.185 -0.88366,1.45521 -1.11104,2.30476 -0.19328,0.70901 0.53949,1.12964 0.90744,1.05834 0.8599,-0.15606 0.87228,-1.03458 0.93843,-1.45005 m 27.930065,9.86091 c 0.45787,-0.80409 0.19328,-1.73839 0.72451,-2.49288 0.21704,-0.31212 0.0103,-0.93845 -0.60253,-1.05007 -0.38656,-0.0661 -0.97462,-0.21911 -1.03458,0.25116 -0.15398,1.16478 -0.70694,2.53008 0.9126,3.29179 m -10.60502,60.44695 c -0.0445,0.42788 -0.3886,0.93326 0.22013,1.21129 0.31419,0.14573 0.6718,0.0156 0.88059,-0.26974 0.32554,-0.43927 0.19843,-0.98703 -0.0848,-1.30432 -0.6346,-0.70694 -1.20925,-1.3684 -1.07384,-2.42051 0.0393,-0.31317 -0.25633,-0.41342 -0.54779,-0.23876 -0.21704,0.13229 -0.48678,0.24082 -0.61391,0.43719 -0.12711,0.19222 -0.17466,0.51057 0.21703,0.5891 1.17203,0.24082 0.97878,1.17512 1.00254,1.99575 m 16.94677,-99.033748 c -1.36012,-0.37622 -2.3523,-0.89401 -2.9714,0.39687 -0.2594,0.54261 -0.0206,1.3653 0.26252,1.46039 1.55546,0.52917 1.48931,-1.3095 2.70888,-1.85726 M 124.2429,250.65291 c 0.71932,-1.81489 -0.75965,-3.0293 -0.92914,-4.55375 -0.0185,-0.17674 -0.4341,-0.49712 -0.53951,-0.45267 -0.39997,0.16433 -0.68006,0.64079 -0.50228,0.97978 0.68521,1.29915 0.48884,3.02926 1.97093,4.02664 m -2.19935,-14.94071 c 0.28318,-1.14101 2.23655,-1.29915 1.59576,-2.68097 -0.17672,-0.38343 -1.21955,-0.95189 -1.9389,-0.35967 -1.29913,1.07177 0.22945,1.98747 0.34314,3.04064 m 9.67073,-219.078088 c -0.26458,-0.28837 -0.56017,-1.03458 -0.68524,-0.70385 -0.35968,0.96637 -2.10323,-0.0765 -1.83555,1.38907 0.17984,1.00562 1.31673,1.36839 1.66606,2.281 1.00044,-0.79169 0.0692,-2.06913 0.85473,-2.96622 m -8.58864,69.90786 c -0.2346,0.85783 -0.44442,1.71979 -0.70588,2.56418 -0.18812,0.59844 -0.48165,1.27228 0.47644,1.32811 0.57877,0.0341 1.18546,0.0217 1.46555,-0.90951 0.39688,-1.32913 -0.53951,-1.98437 -1.23611,-2.98278 m 0.0724,91.869338 c 0.44648,0.45165 0.75136,0.15812 0.95705,-0.21188 0.46611,-0.84129 -0.23567,-2.05361 0.8392,-2.71713 -0.33589,-0.185 -0.65317,-0.43098 -1.01388,-0.53745 -0.31213,-0.0899 -0.85164,0.0661 -0.58394,0.45476 0.82267,1.18028 -0.63044,0.97153 -0.76483,1.43971 -0.17258,0.59325 -1.172,0.37309 -0.94257,1.08003 0.24907,0.75655 0.92604,0.58912 1.50897,0.49196 m -2.72336,-51.78184 c 0.19637,-1.43973 0.4558,-2.68306 0.17468,-3.9791 -0.1447,-0.67283 -0.46511,-1.11413 -1.17721,-1.15961 -0.25114,-0.0175 -0.60047,-0.031 -0.66146,0.29972 -0.0951,0.53432 0.0506,0.96014 0.43926,1.43661 0.39997,0.49712 1.28572,1.07693 0.30385,1.98953 -0.30385,0.28525 0.15711,0.94983 0.92088,1.41285 m -2.59213,132.90039 c 0,-2.44533 0.0206,-4.55887 -0.032,-6.67038 -0.005,-0.23048 -0.52088,-0.68006 -0.66661,-0.63251 -0.47956,0.16121 -0.59841,0.75136 -0.49507,1.12757 0.33073,1.22783 0.59016,2.47634 0.36484,3.71139 -0.16124,0.88678 -0.0527,1.55133 0.82888,2.46393 m -5.94071,-70.88973 c 0.061,-0.57153 0.12713,-1.03455 0.14367,-1.49757 0.0206,-0.59015 -0.23567,-1.19578 -0.83408,-1.12757 -0.81957,0.0982 -0.52398,0.802 -0.29868,1.24126 0.38137,0.74311 0.061,0.84646 -0.56121,1.25368 -0.82579,0.54258 0.23254,1.48206 0.0982,2.28409 -0.0289,0.16121 0.36483,0.46509 0.61391,0.24599 0.47336,-0.41341 1.20613,-0.68525 1.01597,-1.54514 -0.0713,-0.32348 -0.13229,-0.64596 -0.17777,-0.85474 m 8.67026,10.8717 c -0.41238,1.18547 -2.31717,1.788 -1.47587,2.22002 1.71154,0.8723 1.52651,2.25411 1.81798,3.93155 0.65317,-1.85725 0.53123,-4.08038 -0.34211,-6.15157 m 8.25273,-104.669588 c -0.72449,0.14573 -0.65628,1.2971 -1.79626,1.19063 -0.76999,-0.0713 0.2408,0.72244 0.0868,1.19062 -0.0972,0.29663 -0.26665,0.92088 0.51882,0.4713 1.14308,-0.65629 1.26505,-0.16639 0.99219,0.894 -0.15089,0.59325 0.23048,1.1007 0.68834,1.519288 0.66662,-1.151358 0.41547,-3.752738 -0.4899,-5.265838 m 0.23047,-15.31895 c -0.57671,0.9684 0.33592,2.29132 -1.16993,2.466 -0.53435,0.061 -0.97877,0.24804 -0.801,0.8568 0.1664,0.57152 0.46818,1.15342 1.24852,1.01594 0.56636,-0.10025 1.4738,0.0692 1.53995,-0.62113 0.11679,-1.18856 0.19844,-2.47428 -0.81754,-3.71761 M 76.492875,117.07034 c -0.76893,-0.061 -0.48059,0.39378 -0.56017,0.75655 -0.28628,1.30122 0.72969,2.55799 0.0558,3.87056 -0.14883,0.28837 0.17156,0.6377 0.57878,0.64595 0.34933,0.0103 0.37309,-0.39481 0.47127,-0.48162 0.89194,-0.8206 0.34108,-1.95543 0.75655,-2.84943 0.32039,-0.67799 -0.65317,-1.99781 -1.30225,-1.94201 m 44.667035,75.23676 c -0.0713,-0.59013 0.38137,-1.92339 -0.53123,-2.6882 -0.87334,-0.73279 -0.22014,1.46863 -1.45315,1.0821 -0.24595,-0.0744 -1.68462,1.24642 -0.0238,1.83348 0.76274,0.26768 0.61701,0.79685 0.68834,1.23817 0.0982,0.58703 -0.0527,1.4211 0.75965,1.34668 0.80406,-0.0713 0.43614,-0.96531 0.54983,-1.50792 0.0527,-0.25424 0.0103,-0.53226 0.0103,-1.30431 m -6.64041,0.97874 c -0.66455,0.39172 -1.44177,-0.53948 -1.64021,0.31732 -0.14573,0.63045 0.96221,0.84955 0.894,1.60919 0.54984,0.0259 0.8568,-0.38653 1.0604,-0.75448 0.38137,-0.6935 1.09347,-1.18235 1.18856,-2.05568 0.0631,-0.59016 0.88366,-1.66915 0.13229,-1.62989 -0.894,0.0476 -1.96371,-0.65627 -2.81016,0.23048 -1.43661,1.51104 0.0238,1.81488 1.17512,2.28306 M 129.80117,92.313202 c 0.14573,-0.60357 -0.2191,-1.39939 -0.62942,-1.12964 -1.14308,0.75655 -2.67787,0.64801 -3.61942,1.79628 -0.41754,0.51366 -0.46302,0.96015 -0.14779,1.45727 0.38862,0.61185 0.99734,0.46096 1.37562,0.10128 0.524,-0.5054 1.20406,-0.88159 1.77768,-0.80512 1.31257,0.17261 1.29397,-0.54467 1.24333,-1.42007 m -8.4553,114.995558 c -0.19328,0.0135 -0.38965,0.0217 -0.58499,0.0289 -0.032,1.22267 -1.20716,1.98231 -1.08519,3.37137 0.0847,0.93639 1.14308,1.23817 0.9715,2.30995 -0.11679,0.73792 -0.55603,2.27478 0.71934,2.25412 1.59576,-0.03 0.32867,-1.47381 0.38137,-2.13527 0.1478,-1.92133 -0.23047,-3.88401 -0.40203,-5.82912 m 2.49182,47.38421 c 2.39985,-0.0765 3.11198,-0.60048 2.40813,-1.84693 -0.56121,-0.99219 -2.09291,-0.98703 -2.70682,-2.07634 -0.14261,0.092 -0.39169,0.17155 -0.41341,0.28834 -0.28834,1.61126 -0.32763,3.24837 0.10853,4.81211 0.2253,0.80719 1.03249,0.4558 1.52961,0.34727 0.35761,-1.01389 -0.9839,-0.59532 -0.92604,-1.52445 m -10.4004,-87.07171 c 1.06868,0.1323 0.38034,0.97359 0.78549,1.30432 0.44443,0.35761 0.97359,0.62735 1.43971,0.19637 0.56843,-0.524 -0.0692,-0.94464 -0.39172,-1.08831 -1.23817,-0.54776 -1.68775,-1.57406 -1.92132,-2.7719 -0.11576,-0.61185 -0.61907,-0.79169 -1.03974,-0.68318 -0.54983,0.14263 -0.10541,0.6749 -0.17465,1.00253 -0.17158,0.77308 0.0589,1.58543 -0.76999,2.29134 -0.65317,0.55603 -0.49403,1.63296 0.30179,2.27788 0.20362,0.16743 0.4899,0.83098 0.90537,0.17468 0.19019,-0.29559 0.97875,-0.45165 0.56018,-0.8382 -1.13482,-1.04799 0.51366,-1.19063 0.30488,-1.86553 m -0.74414,-40.17944 c -0.24596,0.69556 -0.86712,1.84896 -0.19222,1.90479 1.97816,0.16949 0.44648,1.27227 0.54673,1.80453 0.11473,0.60357 -0.40412,1.31983 -0.62425,1.99782 -0.18706,0.56637 -0.0135,0.94464 0.6377,0.91776 0.44751,-0.0206 1.36837,0.24082 1.18856,-0.41754 -0.37312,-1.33429 0.62113,-1.28053 1.1689,-1.21438 1.70429,0.19843 1.38184,-0.87853 1.3684,-2.0619 -0.678,1.13792 -1.47381,0.81029 -2.05052,0.29146 -0.77825,-0.70384 0.8754,-0.80203 0.44958,-1.5844 -1.12448,0.0496 -2.06912,-0.33695 -2.49288,-1.63814 m 7.5334,44.88614 c -0.4899,1.98954 -1.00047,3.97185 -1.46349,5.96657 -0.2191,0.94464 -2.94762,1.91823 -0.005,2.88975 0.0713,0.0206 0.13745,0.26146 0.10025,0.37 -0.44648,1.418 0.43927,0.64595 1.01598,0.7276 1.24126,0.17984 1.42936,-0.8599 1.14824,-1.30741 -0.68522,-1.08419 0.0217,-2.06087 -0.12714,-3.01273 -0.28834,-1.87069 0.62736,-3.80236 -0.66868,-5.63378 m -40.542255,103.1503 c 0.86196,-2.60554 -0.0135,-5.15938 -0.10025,-8.25688 -0.66972,1.17202 -1.18856,1.70325 -2.13837,1.18753 -1.00253,-0.54467 -0.36277,-1.21955 -0.27286,-1.88619 0.061,-0.47646 0.31006,-0.86299 -0.0475,-1.48206 -0.58396,-1.01288 0.278,-2.25105 1.96887,-3.29388 -1.5317,-0.46818 -3.51607,-4.60849 -2.61691,-5.90248 0.78033,-1.11723 1.62472,-0.39997 2.1146,0.6873 0.894,-2.54248 -0.19325,-4.76456 -2.16731,-4.93924 0.71416,-2.22311 2.34199,-4.66225 1.93683,-6.69414 -0.53742,-2.70682 0.75655,-5.74953 -1.34461,-8.18142 -0.61907,-0.71625 0.15605,-1.52342 0.17984,-2.30685 0.0269,-1.05315 0.0899,-1.6588 -1.34671,-1.73839 -1.45521,-0.0816 0.27596,-1.46553 -0.49194,-2.05259 -0.13229,-0.10128 -0.0682,-0.42891 0.19638,-0.41031 0.14467,0.0103 0.2563,0.28525 0.42063,0.35451 0.66146,0.28009 0.43098,-0.11678 0.52917,-0.5426 0.47336,-1.98128 -0.16949,-3.89745 -0.2036,-5.84462 -0.0114,-0.60047 -0.0217,-1.15859 0.0951,-1.75906 0.35142,-1.81282 0.17158,-3.38169 -2.0319,-3.95324 -0.70694,-0.17984 -1.57202,-3.78582 -1.10072,-4.24884 1.33842,1.42317 0.91776,-0.93948 1.7353,-0.70176 0.093,0.43408 0.2408,0.94465 0.31006,1.47175 0.0548,0.42786 -0.38965,0.93636 0.60563,1.44899 -0.42373,-2.08153 1.18753,-3.81474 -0.0341,-5.91799 -0.38137,-0.65627 0.11885,-2.02157 1.16893,-2.5187 0.39481,-0.18809 0.9684,0 0.9312,-0.73276 -0.0238,-0.50851 -0.43923,-0.65114 -0.76687,-0.84958 -2.36781,-1.4211 -2.74608,-3.04787 -1.17512,-5.43428 0.16949,-0.25942 0.29353,-0.50025 0.19638,-0.70384 -1.85209,-3.80236 -1.24127,-7.88273 -1.38391,-11.87731 -0.0164,-0.50334 0.34108,-1.24333 -0.99528,-1.02732 -1.02113,0.16433 -0.79066,-1.53892 -0.35139,-1.77459 1.68775,-0.91054 1.24333,-2.35746 1.06039,-3.61733 -0.22738,-1.56064 0.35243,-3.09853 -0.13435,-4.68603 -0.21707,-0.70589 -1.60094,-1.35703 -0.34727,-2.48357 0.38137,-0.34417 -0.83304,-0.0268 -1.00253,-0.52192 -0.2036,-0.59221 -0.99735,0.7307 -0.94155,-0.28008 0.0206,-0.37828 -0.005,-0.99738 0.57878,-1.19375 1.79938,-0.59738 2.21795,-1.95233 1.95027,-3.63802 -0.21188,-1.3539 0.74104,-2.52386 0,-4.18267 -0.44958,-1.00562 -1.70429,-3.28043 0.13229,-4.89479 0.30385,-0.2677 -0.74827,-0.88162 -0.82785,-1.73013 -0.24083,-2.57969 0.53432,-5.07464 0.40203,-7.59334 -0.13229,-2.5859 0.33589,-5.18935 -0.30385,-7.76078 -0.36586,-1.46553 0.88366,-2.61379 0.89607,-4.19095 0.0217,-2.02986 -0.45786,-4.02455 -0.26665,-6.0937 0.11369,-1.22473 0.2222,-2.56624 0.21394,-3.86537 -0.0238,-3.31764 -1.30638,-6.535 -0.87849,-9.82369 0.26768,-2.04227 0.78856,-3.9791 0.0847,-6.04822 -0.21188,-0.62219 0.97875,-1.11104 0.75655,-2.13527 -0.66664,-3.05305 0.18603,-6.14433 -0.10853,-9.23665 -0.25321,-2.645838 -0.34107,-5.352628 -0.0734,-7.990208 0.22736,-2.2624 -1.25161,-3.73105 -1.97406,-5.56762 0.72761,-0.0847 1.13999,1.10587 1.76734,0.33385 0.67696,-0.83923 -0.0269,-1.19581 -0.69866,-1.65365 -0.38034,-0.25942 -0.97049,-0.97359 -0.27286,-1.50587 0.55398,-0.4227 0.24082,0.70694 0.83923,0.56639 v -2.466 c -0.38343,0.81545 -0.77515,1.54821 -1.95027,0.75446 -0.0476,-0.48162 2.17247,-0.76171 0.42892,-1.79938 -0.11163,-0.0661 0.31728,-1.35183 1.27743,-0.99218 0.85474,0.31731 0.68318,-0.43098 0.80513,-0.75137 0.83301,-2.20657 -0.0476,-4.47415 0.15089,-6.72311 0.0765,-0.8785 -0.47646,-1.81486 -0.0476,-2.75125 0.0259,-0.0589 0.0424,-0.18809 0.0238,-0.19327 -2.78125,-1.15134 0.65008,-4.28398 -1.77356,-5.63065 -0.2935,-0.16124 -0.25836,-1.16893 -0.15089,-1.74358 0.27802,-1.46553 1.82316,-2.80498 0.17777,-4.44728 -0.32244,-0.32038 0.2377,-1.27018 0.95809,-1.56165 1.16893,-0.47646 0.53432,0.95808 1.26711,1.17512 0.51573,-2.74092 0.43614,-5.23896 -0.77308,-7.82071 -0.42789,-0.92088 0.18087,-2.61482 0.81544,-3.6494 0.52401,-0.85989 0.53951,-1.42317 0.10544,-2.13214 -0.7297,-1.19063 -1.49244,-2.34924 0.008,-3.52745 0.093,-0.0734 0.2036,-0.2956 0.17156,-0.33073 -2.01848,-2.25619 1.61438,-4.68498 -0.21395,-6.93703 1.43145,-2.59829 -0.9498,-5.89217 1.51826,-8.32612 0.22842,-0.22739 0.36071,-0.94465 0.19844,-1.1193 -1.0418,-1.10588 -0.28525,-2.17765 -0.19844,-3.32592 0.10647,-1.40766 0.006,-2.64064 1.74152,-3.06646 0.47643,-0.11679 0.14261,-0.65837 -0.0156,-0.83302 -1.49244,-1.63298 -0.62736,-3.41376 -0.56431,-5.22346 0.0692,-1.93891 0.8785,-3.8839995 0.39997,-5.7629595 -0.58187,-2.26137 0.44958,-4.4204 0.0238,-6.64353002 -0.2067,-1.08415998 1.09762,-1.16683998 1.6402,-1.75905998 0.4899,-0.53742 1.13276,-0.96015 0.70385,-1.6216 -2.11358,-3.26491 -0.66662,-6.8791705 -1.18753,-10.2639805 -0.34211,-2.22208 0.83613,-4.33049 -0.0238,-6.49261 -0.15089,-0.38656 0.19532,-0.9705 0.31729,-1.46865 1.05834,0.0641 0.57153,1.82313 1.01079,1.31566 0.8754,-1.01388 2.59003,-0.41341 2.93936,-1.56165 0.35139,-1.15858 1.40457,-1.51826 2.11357,-2.50526 -1.04698,-0.29146 -1.91307,0.46818 -2.83292,0.0206 0.22739,-0.56846 0.66352,-1.01285 0.72967,-1.6981 0.0848,-0.86299 0.51366,-1.6774 1.72498,-1.31463 1.0056,0.30075 1.63814,-0.35452 1.82623,-1.14311 0.70901,-2.96621 2.03399,-5.50664 4.41524,-7.48789 0.44958,-0.37827 0.71416,-0.83407 1.30431,-0.39481 0.63252,0.47127 0.39172,0.79168 -0.15295,1.21438 -0.73795,0.56637 -0.29147,1.3684 0.11057,1.78388 1.00046,1.02938 0.81547,2.12701 0.25426,3.1192 -0.80719,1.42935 -0.10544,2.67993 0.14883,4.00595 0.14779,0.77515 0.88572,0.84955 1.38078,0.96014 0.51057,0.11679 0.59015,-0.53123 0.74104,-0.98909 0.45477,-1.36528 1.30432,-2.5714 1.21129,-4.15168 -0.0259,-0.45786 0.21188,-1.5689 0.90745,-1.64537 0.98496,-0.10853 1.34151,0.74621 1.29709,1.7353 1.854145,-0.75139 0.870205,-2.31719 1.158575,-3.43133 0.23564,-0.89709 -0.27802,-2.17765 1.29397,-0.87333 0.24805,0.20671 0.55293,0.19637 0.71417,-0.0393 1.25677,-1.83864 2.43189,0.2377 3.67006,0.12713 0.39171,-0.0372 0.13954,0.91983 0.17155,1.41798 0.0393,0.62117 -0.56327,1.45728 0.10544,1.82317 0.79994,0.43923 1.73839,1.38594 2.30995,1.29087 1.511,-0.24391 2.02157,-1.49553 1.36837,-3.02204 0.28318,0 0.51056,-0.003 0.51056,0 0.1323,3.65972 2.08773,6.58564 3.69901,9.69243 0.96324,1.86449 1.42626,3.99976 1.79938,6.11127 0.44648,2.5373 0.54777,5.10354 0.73792,7.6625705 0.0445,0.5984 0.029,1.32291 0.90744,1.26711 0.86506,-0.0527 0.54983,-0.80719 0.56121,-1.26402 0.0579,-2.1146005 1.87275,-2.3946905 3.19051,-3.3103905 0.0661,0.25631 0.061,0.39688 0.12713,0.48679 2.3523,3.2649305 -0.15608,7.2440005 1.56062,10.5781705 0.28837,0.56637 0.13745,1.31981998 0.0403,1.46554998 -1.36014,2.04534002 0.88881,3.69589002 0.40926,5.64616002 0.92088,-0.82786 0.17777,-2.35956 1.71979,-2.83911 0.32866,0.29146 0.0744,1.34154 0.87849,1.34464 0.74624,0 0.70901,-0.8258 1.03974,-1.3498 1.00047,0.53432 0.83097,1.24333 0.53745,2.1673 -0.30179,0.9519 -0.74621,2.03708 1.14101,2.22211 1.45211,0.14054 1.68982,1.75493 0.63458,3.05096 -0.2563,0.3121295 -0.44958,4.7707795 -0.15605,5.0425895 0.65836,0.61701 1.37562,0.36277 1.68568,-0.29043 0.35449,-0.75137 1.33014,-1.24643 0.82992,-2.20451 2.90317,0.0372 1.40251,2.29134 1.78078,3.42614 0.5829,1.75702 -0.0786,3.79203 0.44439,5.73093 0.32351,1.20716 -1.37768,1.70944 -1.60816,2.85771 -0.45474,-0.21188 -1.53167,0.52917 -1.34668,-0.51057 0.32555,-1.85208 -1.30741,-0.80203 -1.87068,-1.34151 -0.27493,-0.26149 -0.52401,0.88159 -0.57155,1.38906 -0.12195,1.26502 -1.23611,2.3895 -0.41238,3.81786 0.34314,0.59841 0.0393,1.77559 1.32292,0.88675 0.0631,-0.0424 0.38549,0.12919 0.44132,0.26458 0.11885,0.28837 -0.0796,0.48162 -0.32247,0.64286 -2.67788,1.74667 -1.61955,4.44212 -1.57406,6.78407 0.0341,1.83555 -0.52917,3.64321 -0.25424,5.43431 0.52088,3.42098 -0.6749,6.75513 -0.41032,10.09965 0.14055,1.77249 -1.25367,3.20601 -0.64595,4.88651 1.11932,3.07991 -0.25633,6.1991 0.2408,9.28108 0.18293,1.12966 0.40515,1.28365 0.57155,1.00047 0.55086,-0.9312 2.54558,-0.0372 2.27272,-1.69291 -0.20566,-1.25471 -0.89916,-2.43189 1.04283,-2.88666 0.38346,-0.0878 0.36277,-0.83614 -0.0238,-1.01907 -2.30166,-1.079 0.49507,-1.90272 0.15605,-2.90007 -0.0341,-0.10853 0.70901,-0.49197 0.95499,0.032 0.39481,0.83923 1.46865,1.68775 0.42892,2.64893 -0.36277,0.33589 -0.58187,0.29353 -0.43408,0.93639 0.6594,2.85459 -0.99734,4.91029 -2.65099,6.91843 -0.32557,0.39481 -0.76483,0.39997 -1.24127,0.0103 -1.13173,-0.9281 -1.19787,-0.14779 -1.12657,0.76791 0.1633,2.12701 1.74049,2.56936 3.42927,2.88147 v -0.0114 c 2.26962,0.48678 2.89182,2.55384 2.27997,4.95369 -0.39378,1.53686 -1.48106,3.1564 -0.38862,5.08807 0.54776,0.96221 0.95292,2.59209 -0.71726,3.72276 -0.56637,0.3855 -0.21394,2.17144 0.36793,2.77194 1.15858,1.19888 0.76999,2.56934 0.97358,3.87159 0.0579,0.37309 0.15606,1.13999 -0.68524,0.50022 -0.62733,-0.47646 -0.9157,0.21911 -1.02629,0.51573 -0.21498,0.57878 0.19843,0.76483 0.78033,0.81754 0.79375,0.0765 0.96531,0.49196 0.60047,1.27021 -0.57361,1.22679 -0.46508,2.69544 -1.37562,3.843678 -0.38137,0.47956 -0.26252,1.16477 0.10025,1.71463 0.26459,0.40719 0.2594,0.6749 -0.21394,0.97359 -0.57981,0.36586 -0.77515,-0.1292 -0.91572,-0.39897 -0.73586,-1.39422 -1.87275,-0.8051 -2.77813,-0.45783 -1.06865,0.40719 -1.07693,1.46552 -0.73792,2.39469 0.39894,1.08725 -0.57155,2.10838 -0.0164,3.17706 0.0899,0.0185 0.21703,0.0692 0.34417,0.0692 0.71726,0 0.28112,-1.3467 1.09863,-1.05111 0.73485,0.26771 0.21084,1.10072 0.39378,1.572 0.34417,0.89712 -0.32764,2.30169 1.19062,2.65927 l -0.0103,0.0135 c -0.66146,0.73276 -0.81544,1.68981 -1.06349,2.63758 -0.62735,-1.64849 -0.43717,-3.44271 -1.5875,-4.8917 0.11059,2.17143 -1.4397,4.07622 -0.69866,6.35206 0.34623,1.05005 -0.49713,1.86759 -1.36014,2.4815 -1.03455,-0.59737 -2.26444,-1.76424 -2.10117,0.81029 0.0217,0.33589 -0.39687,0.52607 -0.7431,0.57362 -0.43098,0.0589 -0.74621,-0.40413 -0.68213,-0.5819 0.43098,-1.28569 -1.00044,-0.96531 -1.29913,-1.59266 -0.89712,0.53951 -1.20716,1.90479 -2.54868,1.82314 0.13539,1.37565 1.53477,1.68465 2.27066,2.54764 0.42063,0.49197 0.61391,-0.57359 0.85161,-0.98184 0.28837,-0.48678 0.81754,-0.99425 1.20923,-0.52607 0.84958,1.01597 1.17515,0.0206 1.55548,-0.32038 0.57981,-0.52092 1.02421,-1.19063 1.52445,-1.79422 -0.0506,1.11209 -0.18812,2.19419 -0.58187,3.26287 -0.23048,0.61907 -0.61394,0.7648 -1.12448,0.98184 -0.29353,0.12713 -0.87127,-1.12448 -0.82269,0.16639 0.0175,0.51883 0.34105,0.76481 0.85161,0.894 0.4713,0.12198 0.8568,-0.37308 1.35496,-0.0713 0.53435,0.32866 1.46246,0.17984 0.62426,1.34977 -0.84646,1.18237 0.33589,1.41801 1.34358,1.47071 -0.58187,1.22473 -1.75183,2.34921 0.0527,3.3073 -0.82267,1.30741 -0.49194,2.68306 -0.2377,4.05352 0.0982,0.52398 -0.38137,1.4583 0.51573,1.43658 0.87643,-0.0185 0.26252,-1.00044 0.5054,-1.49241 0.41548,-0.84645 -0.61909,-2.58485 1.50792,-2.41535 0.27284,0.0206 0.34933,-0.44752 0.20359,-0.83302 -0.33072,-0.88987 0.35555,-1.63814 0.42686,-2.46912 0.0816,-0.92292 1.02113,-0.78546 1.48105,-1.24333 0.33899,-0.33072 0.65628,0.38344 0.83611,0.83614 0.25427,0.63251 0.32867,0.89916 -0.15089,1.36734 -0.28834,0.28112 -0.13435,0.42892 -0.0341,0.64598 0.89709,1.96575 0.64595,2.84737 -1.20923,2.65409 -1.95543,-0.20153 -1.41594,0.70384 -1.28571,1.6774 l 0.0682,-0.0661 c -0.42064,0.29871 -1.37253,0.0661 -1.11311,1.03973 0.28835,1.07694 0.51779,1.87069 -1.08727,1.00563 -0.63252,-0.33898 -0.7152,0.44958 -0.68006,0.87746 0.13229,1.56684 -0.75965,3.11508 0.33279,4.77079 0.37312,0.56636 -0.79065,1.97403 -0.62735,3.17809 0.10128,0.76171 0.20153,1.67431 0.9798,1.7725 2.14559,0.26149 1.25365,1.15136 0.55499,2.0743 l 0.0744,-0.0982 c -0.69869,-0.99738 -1.10898,-0.1292 -1.06352,0.32038 0.14264,1.40251 -0.37619,2.83393 0.21394,4.19923 l 0.032,-0.0661 c -0.65939,0.21911 -0.42891,0.72451 -0.37621,1.17719 0.4155,3.69901 -0.54983,7.35563 -0.33795,11.09081 0.0734,1.31773 0.73276,2.98791 -0.16433,4.45553 -0.61082,0.99218 -1.35187,1.97196 -1.16996,3.31557 0.0775,0.54777 -0.49713,0.66971 -1.03146,0.62735 -0.5054,-0.0403 -0.76171,0.26459 -0.60047,0.76171 0.21704,0.66662 0.64283,0.57671 1.07694,0.20669 0.50022,-0.42891 1.06865,-1.09037 1.69291,-0.59531 0.75139,0.59531 -0.0156,1.27537 -0.1664,1.95543 -0.21704,0.99428 0.19018,2.05261 0.16124,3.12748 -0.0424,1.52858 -0.52608,1.9544 -1.9203,1.36218 -0.47439,-0.20153 -0.94982,-0.62941 -1.44798,-0.0476 -0.46509,0.53745 -0.0156,0.99735 0.11678,1.49448 0.28009,1.07696 0.70385,1.86346 1.84693,2.44739 1.00769,0.51369 2.20863,1.58544 0.6904,2.9745 -0.17983,0.1664 -0.48164,0.30697 -0.032,0.55295 1.96578,1.07384 0.7121,2.14249 -0.0206,3.20704 l 0.0662,0.0785 c -0.68522,-1.03661 -1.6433,-1.16168 -2.5559,-0.49712 -1.32292,0.96533 0.46508,1.37874 0.49196,2.13011 l 0.0527,-0.0579 c -1.6795,-0.34417 -0.80203,1.47071 -1.61954,1.98953 -0.34108,0.21394 0.61701,0.49197 0.87643,0.81441 0.60254,0.76483 0.96324,0.28631 1.07384,-0.25114 0.1271,-0.61391 0.36277,-1.21957 0.94774,-0.93639 0.47852,0.22945 1.01803,1.0077 0.98393,1.50276 -0.12713,1.79628 0.27284,3.51607 0.48678,5.26481 0.15089,1.24127 -1.91823,1.69601 -1.16374,3.21736 0.27696,0.56121 -0.98187,1.67743 0.85989,1.81798 0.50538,0.0393 -0.006,1.97921 -0.18293,3.0086 -0.0476,0.26665 -0.40722,0.76171 -0.57155,1.15033 -0.32764,0.78856 0.70072,2.87113 -1.65365,1.61954 -0.0476,-0.029 -0.802,0.28318 -0.59015,0.53433 0.25942,0.30178 0.4527,1.04489 0.98187,0.81235 1.24849,-0.54777 1.18543,0.30178 1.19268,1.02939 0.0135,1.25677 0.68316,2.21691 1.23299,3.26699 0.93742,1.78594 0.14573,3.46956 -0.29041,5.26582 -0.46611,1.92341 -0.24082,4.01629 -0.35761,6.03271 -0.0289,0.50747 0.5271,1.76734 -0.94464,0.73276 -0.65836,-0.46302 -0.74311,0.71419 -1.08209,1.07384 -0.47853,0.51575 -0.12404,1.51104 -0.92295,2.40297 1.57716,-0.21497 2.13217,-1.13585 2.83083,-1.90584 0.54983,0.50024 0.41548,1.35186 1.4025,1.57202 0.80098,0.17981 0.66353,1.95024 0.54983,2.06393 -2.05568,2.04021 -0.46818,4.6726 -1.20922,6.89467 -0.13229,0.39482 -0.0527,1.14827 0.21188,1.34152 1.20094,0.8599 0.75136,1.92858 0.48162,2.92904 -1.03457,3.81784 0.75655,7.45898 0.64286,11.21585 -0.0103,0.32554 0.1085,0.6935 0.53742,0.71416 1.22266,0.0579 0.93639,1.04799 0.81753,1.61645 -0.21394,1.04489 -1.00769,-0.32763 -1.44695,0.20153 -0.47127,0.56637 1.68466,0.78859 0.19225,1.48416 0.32866,0.63767 -0.86715,1.95233 0.93742,1.96887 0.57877,0.005 0.55808,1.1689 -0.032,1.64536 -1.3312,1.06868 -1.17722,2.34715 0.37824,3.05099 0.31732,0.14261 0.39172,0.5891 0.28837,0.62423 -1.32291,0.48165 -0.44132,1.90998 -1.17718,2.66134 -0.30491,0.30697 -0.0765,0.79375 -0.97668,0.46821 -1.36015,-0.49197 -0.70385,0.99528 -0.99738,1.57406 -1.04489,-1.17925 -1.04283,-4.46278 -0.0744,-5.83634 0.46612,-0.66662 1.27021,-1.37356 0.28319,-2.48978 -0.11576,0.6532 -0.1509,1.48209 -0.78031,1.52654 -0.57362,0.0424 -0.72761,-0.65837 -0.8568,-1.19063 -0.0982,-0.38862 -0.39997,-0.47852 -0.78653,-0.40516 -0.46509,0.091 -0.42064,0.42686 -0.44958,0.77 -0.12401,1.62779 0.49197,3.18119 0.42892,4.83483 -0.032,0.84336 0.20671,1.68775 -0.2222,2.5001 -0.70385,1.34152 1.05005,2.29341 0.57671,3.6091 -0.005,0.0156 0.31729,0.22736 0.46818,0.21082 0.30694,-0.0362 0.46302,-0.29559 0.36999,-0.58703 -0.29868,-0.94464 0.3845,-1.1803 0.92605,-0.9312 1.04282,0.47644 1.54617,0.0661 1.90066,-1.18753 0.894,2.25412 -1.06143,3.12124 -1.49035,4.54753 -0.22945,0.75964 -0.36999,1.38388 -0.37518,2.16937 -0.005,0.82373 0.93123,2.17556 -1.07487,2.31511 -0.52916,0.0351 -0.59737,1.01078 0.0744,1.79109 0.68834,0.79997 2.05362,1.67537 0.81235,3.19154 -0.43614,0.52917 0.27286,0.68524 0.76999,0.75139 0.52398,0.0662 1.04283,0.39375 1.04799,-0.59531 0.007,-1.03974 0.21704,-2.08257 0.33795,-3.1378 0.93742,0.0135 1.04802,0.7276 0.94258,1.12654 -0.52708,2.01642 0.73795,3.93155 0.22429,5.93762 -0.2956,1.16168 1.33117,2.54558 -0.39378,3.56878 1.60094,1.04799 0.31729,1.68053 -0.54261,2.86287 0.008,-1.68465 -1.20613,-2.69544 -0.50538,-4.11655 0.14883,-0.30384 -0.0744,-0.68315 -0.49506,-0.70381 -0.44958,-0.0238 -0.51573,0.32554 -0.54467,0.68005 -0.0506,0.60357 -0.0744,1.21129 -0.17468,1.8097 -0.061,0.36793 -0.12711,0.8971 -0.68212,0.76999 -0.45787,-0.10647 -0.59016,-0.6377 -0.50539,-0.99531 0.2408,-1.02629 0.60048,-2.0288 0.91467,-3.04271 0.34211,1.00047 1.16684,0.53745 1.34977,0.16434 0.32248,-0.66456 0.76174,-1.39732 0.56121,-2.22724 -0.0951,-0.40309 -0.39688,-0.53226 -0.76481,-0.42376 -0.83095,0.24908 -0.85989,0.89194 -0.83095,1.61955 0.0135,0.29868 -0.22222,0.61081 -0.34623,0.91778 -0.42892,-1.20097 -0.85783,-2.39987 -1.3498,-3.77031 -0.42891,1.1534 -1.603,1.97403 -0.36793,3.17809 0.52401,0.51057 -0.13229,0.75343 -0.48678,1.03662 -0.4682,0.37311 -1.08418,0.75448 -0.36483,1.44179 0.46302,0.44233 0.0982,0.69038 -0.21188,0.96118 -0.34623,0.30385 -0.73589,0.39378 -1.08212,0.0599 -0.43614,-0.42064 -0.8785,-0.85678 -1.20922,-1.35702 -0.38653,-0.58497 -0.42064,-1.36218 -1.53168,-1.21439 -1.21957,0.16433 -0.42582,1.22989 -0.94983,1.64021 -1.39731,-1.7353 -0.26458,-3.78376 -0.65629,-5.69061 -0.43098,-2.10632 -0.003,-4.38422 0.0135,-6.58564 0.008,-0.73279 0.61082,-1.00046 0.95808,-1.47071 0.74002,-1.017 1.20613,-1.82626 -0.65939,-2.19625 -1.70635,-0.33589 -0.39894,-1.43661 -0.26459,-2.16421 0.0455,-0.24083 0.89194,-0.60357 0.56949,-0.82373 -2.10425,-1.42007 -0.48162,-3.80958 -1.53273,-5.49527 -0.35449,-0.57155 -0.3855,-1.58956 0.45786,-1.6743 1.70635,-0.17262 1.07178,-1.55859 1.45831,-2.38644 0.26149,-0.56637 -0.35243,-1.06659 -0.72761,-0.90535 -1.99781,0.87331 -1.51413,-1.25677 -1.51619,-1.5875 -0.0217,-3.94706 -0.678,-7.8259 -1.03455,-11.7316 -0.0372,-0.38653 -0.008,-1.06865 0.16949,-1.1348 2.14252,-0.79065 1.34668,-2.34714 1.06868,-3.78582 -0.11679,-0.59843 -0.13748,-1.14101 0.27284,-1.71979 0.98393,-1.387 -0.79375,-2.19935 -0.81029,-3.40032 -2.13526,1.15652 -0.51263,-1.12757 -1.61851,-1.14823 0.88885,-0.34624 1.71154,0.51366 1.81489,-0.47337 0.0713,-0.6594 1.26399,-1.39422 0.0765,-2.02986 -0.74311,-0.39378 -0.61394,-0.9653 -0.51575,-1.54718 0.24804,-1.46142 0.53951,-2.91353 0.80409,-4.3739 0.185,-1.01595 0.76999,-2.13217 -0.84645,-2.61689 -0.72554,-0.2191 -0.73589,-1.29606 -0.55296,-1.49966 1.39116,-1.53479 0.32764,-2.9931 -0.005,-4.45553 -0.0982,-0.43201 -0.61391,-0.82888 -0.26458,-1.294 0.69247,-0.92085 -0.21188,-1.04798 -0.64905,-1.18544 -0.74827,-0.23876 -0.63976,0.4413 -0.69247,0.8785 -0.0372,0.30385 -0.0506,0.60875 -0.0878,1.10278 -1.10072,-2.85771 -0.89919,-5.61207 -0.63976,-8.44497 0.60047,1.06868 1.14308,2.13217 1.90479,3.05615 0.16123,0.19534 0.17983,0.53123 0.52091,0.34105 0.15089,-0.0848 0.22529,-0.31213 0.33382,-0.47643 -1.25161,-0.74105 0.92604,-1.71464 -0.13229,-2.38644 -0.709,-0.44442 -1.16996,-0.88675 -0.92088,-1.77043 0.44442,-1.5503 -0.29869,-2.51045 -1.65674,-3.01067 -0.49403,-0.185 -0.61082,-0.38137 -0.62117,-0.82579 -0.0558,-2.05052 -1.00872,-4.18269 1.13483,-5.93143 0.77309,-0.63561 0.74311,-1.92339 -0.38653,-2.70163 -0.56639,0.35967 -0.0445,0.97874 -0.29353,1.44176 -0.0899,-0.0372 -0.17468,-0.0765 -0.26149,-0.11369 0.42273,-0.51882 -1.10897,-1.45002 0.34933,-1.72289 0.63148,-0.11885 1.29606,-0.10541 0.96015,-1.05211 -0.0982,-0.28321 -0.0103,-0.72554 -0.47646,-0.76999 -0.34415,-0.0351 -0.33589,0.29869 -0.48678,0.49403 -0.76171,0.99012 -1.0635,-0.86715 -1.94718,-0.1292 0.0372,2.2252 -1.01388,4.61471 0.0259,7.09105 0.20463,0.48368 -0.30075,1.07383 -0.78549,1.48931 -0.65112,0.55811 -1.20404,1.22267 -1.24643,2.21485 1.54824,-0.48471 2.19419,-0.21187 1.35289,1.47072 -0.32557,0.64595 -0.38655,1.35186 0.063,2.09806 0.49194,0.81545 1.12964,1.70635 0.1664,2.71198 -0.2005,0.21188 -0.0816,0.77825 0.27284,1.09554 0.39378,0.35967 0.55811,0.88677 0.22738,1.27227 -1.42832,1.67741 -0.88884,3.83646 -1.51619,5.64928 -0.31213,0.90741 -0.0868,1.25365 0.23254,1.82004 0.7121,1.27019 1.15652,2.25205 -0.26665,3.63077 -1.30431,1.26712 -0.77308,3.43959 -0.31522,4.99711 0.57155,1.94511 2.22313,3.64424 0.19844,5.64412 -0.10335,0.10334 -0.029,0.55499 0.11162,0.709 1.41801,1.56578 0.0579,3.3786 0.46302,5.0374 0.0982,0.40516 0.185,0.87334 -0.48162,1.28056 -0.72554,0.44439 -0.59531,0.65937 0.47128,1.07175 0.29353,0.11369 0.43304,0.37002 0.35139,0.64804 -0.90432,2.99826 -0.90741,6.07198 -0.85471,9.16326 0.0135,0.71417 -0.092,1.39938 0.0506,2.14249 0.27491,1.39941 0.45268,2.78122 -0.14263,4.25194 -0.62217,1.53685 -0.0744,3.26802 -0.15399,4.86587 -0.0951,1.88619 0.27284,3.74652 0.11163,5.66994 -0.20466,2.44427 -0.48162,4.96919 -0.4031,7.47448 0.14574,4.60333 0.23567,9.20768 0.30491,13.80897 0.0506,3.47057 0.43923,6.96392 0.2749,10.39522 -0.25114,5.25446 0.48162,10.4345 0.52711,15.65486 0.0175,2.13321 -1.61126,2.90526 -2.68613,4.16203 -0.97875,1.1534 -1.85727,2.30992 -1.89654,3.92946 -0.0135,0.68212 -2.09081,1.28881 -2.3337,0.66665 -0.39688,-1.02114 -1.22576,-0.51576 -1.87378,-0.88678 1.46346,-1.55752 0.91054,-3.16675 0.17984,-4.71702 -0.3142,-0.66664 -1.0046,-1.27849 -1.735295,-0.57155 -0.46302,0.44751 -2.1694,0.61597 -0.73589,1.96577 0.39482,0.37 0.759645,1.16996 0.41858,1.87897 -0.33589,0.69037 -0.47334,1.77972 -1.5379,1.56371 -1.24539,-0.25217 -0.50538,-1.30741 -0.30075,-1.79419 0.77722,-1.87069 -0.43717,-3.44787 -0.57981,-5.16456 -0.0455,-0.50332 -0.39997,-0.86299 -1.01078,-0.64286 -0.58703,0.21085 -0.68834,0.68731 -0.43926,1.13998 0.45992,0.83098 0.23772,1.71979 0.34935,2.5766 0.0527,0.41031 -0.0372,0.82372 -0.44442,1.04801 -0.0847,0.0455 -0.29869,-0.005 -0.35451,-0.0848 -0.2594,-0.35139 -0.27803,-0.74827 -0.0579,-1.12654 0.1292,-0.22014 0.4413,-0.38137 0.48369,-0.60563 0.13229,-0.7307 -0.46612,-1.22061 -0.9498,-1.35806 -0.85474,-0.24805 -0.67181,0.59841 -0.72761,1.06349 -0.11369,0.94465 -0.16433,1.83658 -1.19581,2.374 -0.987,0.51057 -0.60563,1.61851 -0.54777,2.373 0.0744,0.99735 0.0289,2.03192 0.23564,3.00032 0.33798,1.572 -0.19635,2.39988 -1.98228,2.70373 0.69037,-0.9519 -1.50276,-2.27275 0.69037,-2.90733 0.0372,-0.0103 0.0879,-0.14573 0.0641,-0.17983 -0.52917,-0.80201 -1.00251,-1.24127 -0.10541,-2.47425 0.88365,-1.21648 -1.72808,-1.20926 -1.87897,-2.53939 -0.73276,0.45164 -0.19637,1.5844 -1.21957,1.53995 -0.42892,-0.0185 -0.9312,0.47337 -0.96118,-0.63561 -0.0475,-1.72807 -0.78031,-2.01022 -2.43086,-1.30432 -0.50538,0.21704 -0.83611,0.0238 -0.9126,-0.40722 -0.2222,-1.27846 -1.06971,-2.57762 -0.11679,-3.86849 0.6563,-0.88572 -0.0156,-1.70636 -0.11369,-2.50836 -0.26768,-2.23864 -0.78859,-4.44728 -1.24849,-6.66213 -0.0744,-0.35142 0.0972,-0.60566 0.12608,-0.87024 0.30181,-2.78847 0.59325,-5.63274 -0.32764,-8.31887 -0.51572,-1.50275 -0.30384,-2.97863 -0.31728,-4.40283 -0.0424,-4.30154 -0.40204,-8.57726 -0.678,-12.86123 -0.15605,-2.43912 -0.58703,-4.86275 -0.68728,-7.30189 -0.061,-1.47897 -0.26252,-2.87629 -0.79894,-4.2385 z m 0,0"
       id="path63"
       style="stroke-width:0.264583" />
    <path
       fill-rule="evenodd"
       fill="#000000"
       fill-opacity="1"
       d="m 127.83544,147.53155 c 1.51619,-0.64286 2.01125,-2.04226 2.48459,-3.42617 0.19328,-0.56121 0.47337,-0.97358 1.04283,-1.10069 0.27493,-0.0641 0.51885,0.1292 0.56327,0.4413 0.0879,0.57465 -0.309,0.82063 -0.7276,1.08728 -1.46862,0.92913 -0.17156,2.01435 -0.11366,3.01688 0.11366,1.89651 1.0025,3.61114 1.41282,5.44462 0.0455,0.19638 0.18809,0.47647 0.11163,0.57465 -1.27022,1.59576 0.0496,3.59254 -0.60669,5.0033 -0.66353,1.42626 -0.60566,2.21176 0.20981,3.37344 0.38343,0.54983 -0.13229,1.21441 -0.6749,1.73014 -0.87334,0.83611 -1.59266,1.79937 -0.86299,3.04786 -0.28525,0.2036 -0.46821,0.39482 -0.63251,0.14264 -0.76174,-1.15858 -0.0372,-3.36 -2.3916,-3.42305 -0.0238,0 -0.093,-0.26977 -0.0527,-0.38137 0.76171,-2.12494 -0.36484,-4.36769 0.32244,-6.72827 0.88885,0.71726 -0.26148,2.93936 1.92858,2.18281 -0.8413,-1.00253 -0.27183,-2.17456 -0.29559,-3.29179 -0.005,-0.34313 0.41031,-1.02113 -0.0827,-0.9467 -2.01022,0.30385 -1.68775,-1.5131 -2.37815,-2.3916 l -0.032,0.0661 c 0.65423,-1.43661 0.59531,-3.00861 0.84645,-4.52171 z m 0,0"
       id="path64"
       style="stroke-width:0.264583" />
    <path
       fill-rule="evenodd"
       fill="#000000"
       fill-opacity="1"
       d="m 132.6031,25.629942 c 0.81547,2.21485 1.65986,4.18888 0.46614,6.59598 -0.52917,1.0635 -2.2624,2.7068 -0.0476,4.2912 0.7121,0.5116 0.33589,2.04846 -0.3049,2.9745 -0.59222,0.85474 -0.75343,1.60094 -0.17672,2.56934 0.6935,1.16377 -0.27286,2.32029 -0.29146,3.51092 -0.0103,0.45992 -0.71416,0.84645 0.32866,0.98909 0.28009,0.0372 0.30385,0.55293 -0.0899,0.79891 -0.43717,0.27284 -0.75136,0.87643 -1.36527,0.69866 -0.32557,-0.0951 -0.30179,-0.48162 -0.33589,-0.83302 -0.25943,-2.66962 0.12917,-5.32886 -0.16124,-8.03775 -0.32351,-3.03032 1.02629,-6.14124 0.39066,-9.29245 -0.0238,-0.11163 0.0164,-0.31523 0.093,-0.35452 1.53995,-0.8599 1.93889,-2.17763 1.49447,-3.91086"
       id="path65"
       style="stroke-width:0.264583" />
    <path
       fill-rule="evenodd"
       fill="#000000"
       fill-opacity="1"
       d="m 129.82291,110.76272 0.0135,-0.0164 c -0.10334,-1.24024 -0.27802,-2.4815 -0.28834,-3.72277 -0.0114,-1.15342 0.80097,-1.69291 1.8283,-1.54514 0.51056,0.0744 0.98393,0.51057 1.3653,-0.092 0.36483,-0.5798 -0.66974,-0.72038 -0.59531,-1.39734 1.18234,1.46555 1.06039,1.63298 0.31729,2.86806 -0.54571,0.89916 -2.62724,2.04845 -0.005,3.11195 0.44958,0.18499 0.49919,0.93638 0.0972,1.42523 -0.25117,0.30697 -0.78859,0.52194 -0.83614,0.82888 -0.11575,0.75346 -0.39894,1.32292 -1.17202,1.25368 -0.77206,-0.0682 -0.46302,-0.98184 -0.81235,-1.44177 -0.27493,-0.35967 -0.36174,-0.87849 0.0878,-1.27227"
       id="path66"
       style="stroke-width:0.264583" />
    <path
       fill-rule="evenodd"
       fill="#000000"
       fill-opacity="1"
       d="m 129.209,191.53713 c 1.18237,-0.709 1.39734,-1.5317 0.44958,-2.51354 -0.21395,-0.22532 -0.29869,-0.5819 -0.41548,-0.88678 -0.1664,-0.44442 0.75655,-1.04179 0,-1.30431 -0.75655,-0.26149 -0.65627,0.66146 -0.90225,1.06868 -0.41548,0.68831 -0.74621,0.0506 -0.86196,-0.11576 -0.43204,-0.60566 0.54464,-1.64849 0.9498,-2.16421 0.74104,-0.94464 1.46865,-1.84693 2.36987,-2.64584 0.31316,-0.28111 0.5116,-0.61184 0.92914,-0.47439 0.45786,0.15089 0.524,0.62219 0.46614,1.017 -0.11163,0.71932 -0.0693,1.74871 -0.51678,2.07635 -1.68257,1.24645 -1.30429,2.47634 -0.60564,4.09278 0.55603,1.28881 -0.44648,2.22518 -1.86242,1.85002"
       id="path67"
       style="stroke-width:0.264583" />
    <path
       fill-rule="evenodd"
       fill="#000000"
       fill-opacity="1"
       d="m 129.81981,222.31045 c -1.11932,-1.76424 0.38344,-3.73311 -0.0103,-5.70923 -0.21185,-1.0635 0.81754,-0.74102 1.19582,-1.13274 0.23563,-0.24082 0.62941,0.39172 0.46302,0.60876 -1.29398,1.69291 0.43407,3.25974 0.19843,4.94543 -0.092,0.64492 -0.1819,1.27227 -0.46302,1.82004 -0.2191,0.43098 -0.37002,1.22989 -1.01078,1.06349 -0.53436,-0.13538 -0.65321,-0.78859 -0.37312,-1.59575"
       id="path68"
       style="stroke-width:0.264583" />
    <path
       fill-rule="evenodd"
       fill="#000000"
       fill-opacity="1"
       d="m 132.59278,5.6063525 c 0.33382,-0.0289 0.27284,1.70636 1.12964,0.38344 0.15608,-0.2408 0.33073,-0.11576 0.4744,0.0403 0.62113,0.68522 -0.30179,4.1403095 -1.16997,4.4286495 -1.24642,0.41238 -1.82313,-0.10541 -1.6433,-1.3197895 0.18294,-1.21442 0.0506,-2.55903 1.20923,-3.53262"
       id="path69"
       style="stroke-width:0.264583" />
    <path
       fill-rule="evenodd"
       fill="#000000"
       fill-opacity="1"
       d="m 84.160595,328.99024 c 1.81282,0.7648 2.52492,2.81016 2.09806,6.07816 -1.88825,-1.7146 -2.73264,-3.60907 -2.09806,-6.07816"
       id="path70"
       style="stroke-width:0.264583" />
    <path
       fill-rule="evenodd"
       fill="#000000"
       fill-opacity="1"
       d="m 129.8808,170.34874 c 0.43098,0.36071 0.73276,0.73899 1.12757,0.91882 1.0635,0.48162 1.98128,0.90744 0.33589,1.86243 -0.15914,0.0899 -0.37102,0.28318 -0.37102,0.42889 0.0114,0.7276 -0.13954,1.53376 -0.97359,1.35705 -0.99735,-0.21188 -0.76999,-1.71463 -0.61598,-1.92342 0.61082,-0.83095 -0.22532,-1.75183 0.49713,-2.64377"
       id="path71"
       style="stroke-width:0.264583" />
    <path
       fill-rule="evenodd"
       fill="#000000"
       fill-opacity="1"
       d="m 131.02388,119.63867 c -0.42066,1.06969 -0.19018,2.02467 0.53226,2.75746 0.6718,0.67488 -0.0185,1.09035 -0.14055,1.60092 -0.0765,0.32763 -0.47646,0.6346 -0.73279,0.33591 -0.31003,-0.35245 -0.74414,-0.57464 -0.81028,-1.24851 -0.17672,-1.81592 -0.0713,-2.5559 1.15136,-3.44578"
       id="path72"
       style="stroke-width:0.264583" />
    <path
       fill-rule="evenodd"
       fill="#000000"
       fill-opacity="1"
       d="m 130.56086,72.752632 c -0.185,-1.09347 -0.87024,-2.11667 -0.17674,-3.30729 0.38034,-0.65937 0.82992,-0.69038 1.27227,-0.34415 0.12197,0.092 1.33636,0.57981 0.11369,1.29398 -0.64285,0.37308 -0.83095,1.52651 -1.2175,2.33886 0.006,0.007 0.008,0.0185 0.008,0.0185"
       id="path73"
       style="stroke-width:0.264583" />
    <path
       fill-rule="evenodd"
       fill="#000000"
       fill-opacity="1"
       d="m 129.53147,194.63564 c 1.6619,1.18237 0.9684,2.70889 0.68831,4.16409 -0.0475,0.24908 -0.36483,0.49507 -0.60047,0.23564 -0.19637,-0.21394 -0.36793,-0.62426 -0.30178,-0.87849 0.2904,-1.14824 0.62735,-2.27272 0.21394,-3.52124"
       id="path74"
       style="stroke-width:0.264583" />
    <path
       fill-rule="evenodd"
       fill="#000000"
       fill-opacity="1"
       d="m 129.40743,132.87919 c 0.37518,-0.10335 0.75965,-0.31004 1.12139,-0.278 0.66661,0.063 1.70944,-0.55811 1.911,0.42064 0.17672,0.86196 -0.78343,0.79581 -1.43454,0.84645 -0.14057,0.0135 -0.27493,0.22223 -0.39688,0.35452 -0.30387,0.33898 -0.58705,0.87333 -1.11622,0.53948 -0.68006,-0.42579 -0.10644,-0.90744 0.0579,-1.37046 0.0558,-0.1664 -0.0444,-0.3855 -0.0744,-0.57877 -0.003,0 -0.0682,0.0661 -0.0682,0.0661"
       id="path75"
       style="stroke-width:0.264583" />
    <path
       fill-rule="evenodd"
       fill="#000000"
       fill-opacity="1"
       d="m 106.89925,-38.533578 c 0.84955,0.50435 0.6563,1.43349 0.93639,2.11357 0.10334,0.24908 0.0238,1.08725 -0.41238,0.77825 -0.50851,-0.36277 -1.61954,-0.0135 -1.56374,-1.25677 0.0372,-0.83098 0.44132,-1.17512 1.03973,-1.63505"
       id="path76"
       style="stroke-width:0.264583" />
    <path
       fill-rule="evenodd"
       fill="#000000"
       fill-opacity="1"
       d="m 125.40974,190.00234 c 0.35142,2.17765 -0.061,2.75952 -1.6805,2.3151 -0.13748,-0.0393 -0.17984,-0.43616 -0.26459,-0.66352 l -0.0527,0.0599 c 0.70898,-0.51779 0.66662,-1.98438 2.06393,-1.63505 z m 0,0"
       id="path77"
       style="stroke-width:0.264583" />
    <path
       fill-rule="evenodd"
       fill="#000000"
       fill-opacity="1"
       d="m 130.55051,115.2999 c 0.17674,0.91263 1.52654,-0.27283 1.41492,0.93123 -0.0631,0.72554 -0.50748,1.38906 -1.17719,1.45831 -0.87024,0.0868 -0.78033,-0.73899 -0.76171,-1.3312 0.0135,-0.38344 -0.15608,-0.9312 0.52398,-1.05834"
       id="path78"
       style="stroke-width:0.264583" />
    <path
       fill-rule="evenodd"
       fill="#000000"
       fill-opacity="1"
       d="m 79.702975,275.4183 c -0.38653,0.40929 -0.35759,1.35702 -1.05834,1.24024 -0.41857,-0.0682 -0.8206,-0.72967 -1.04489,-1.21129 -0.0744,-0.15399 0.37828,-0.68834 0.69247,-0.86506 0.97359,-0.55089 0.89194,0.64284 1.387,0.90226 0.005,-0.008 0.0238,-0.0661 0.0238,-0.0661"
       id="path79"
       style="stroke-width:0.264583" />
    <path
       fill-rule="evenodd"
       fill="#000000"
       fill-opacity="1"
       d="m 137.35528,89.045192 c -0.11369,-1.12966 -0.19018,-2.08774 -0.31213,-3.03961 -0.0631,-0.51882 0.1664,-0.75139 0.64286,-0.78653 0.18499,-0.0156 0.37309,0.0351 0.55811,0.0558 -0.0496,0.31523 0.0114,0.80201 -0.16952,0.91776 -1.079,0.7121 0.22326,1.94511 -0.71932,2.85255"
       id="path80"
       style="stroke-width:0.264583" />
    <path
       fill-rule="evenodd"
       fill="#000000"
       fill-opacity="1"
       d="m 130.78824,49.172702 c 0.70176,1.19062 -0.19328,2.38641 0.9157,3.11401 0.26458,0.17465 0.0156,0.6408 -0.32557,0.79169 -0.49194,0.21394 -0.44442,-0.22842 -0.61598,-0.4899 -0.70382,-1.09244 0,-2.05053 0.0259,-3.4158"
       id="path81"
       style="stroke-width:0.264583" />
    <path
       fill-rule="evenodd"
       fill="#000000"
       fill-opacity="1"
       d="m 75.924405,238.97711 c -0.47337,-0.7865 -0.0796,-1.72495 -0.8971,-2.48253 -0.49712,-0.4599 0.62736,-0.65524 0.7121,-1.16375 0.1664,0.30697 0.45784,0.61082 0.47647,0.92914 0.0475,0.89606 -0.64908,1.73014 -0.29147,2.71714"
       id="path82"
       style="stroke-width:0.264583" />
  </g>
</svg>
