<svg width="104" xmlns="http://www.w3.org/2000/svg" height="16.218" fill="none"><g class="fills"><rect rx="0" ry="0" width="103.218" height="16.218" transform="matrix(1.000000, 0.000000, 0.000000, 1.000000, 0.000000, 0.000000)" class="frame-background"/></g><g class="frame-children"><path d="M0.000,7.995L103.005,7.995" class="fills"/><g class="strokes"><path d="M0.000,7.995L103.005,7.995" style="fill: none; stroke-width: 0.5; stroke: rgb(0, 0, 0); stroke-opacity: 1;" class="stroke-shape"/></g><path d="M92.892,1.000L84.042,15.000" class="fills"/><g class="strokes"><path d="M92.892,1.000L84.042,15.000" style="fill: none; stroke-width: 0.5; stroke: rgb(0, 0, 0); stroke-opacity: 1;" class="stroke-shape"/></g><path d="M96.826,1.000L87.975,15.000" class="fills"/><g class="strokes"><path d="M96.826,1.000L87.975,15.000" style="fill: none; stroke-width: 0.5; stroke: rgb(0, 0, 0); stroke-opacity: 1;" class="stroke-shape"/></g><path d="M100.760,1.000L91.909,15.000" class="fills"/><g class="strokes"><path d="M100.760,1.000L91.909,15.000" style="fill: none; stroke-width: 0.5; stroke: rgb(0, 0, 0); stroke-opacity: 1;" class="stroke-shape"/></g><path d="M81.091,1.000L72.240,15.000" class="fills"/><g class="strokes"><path d="M81.091,1.000L72.240,15.000" style="fill: none; stroke-width: 0.5; stroke: rgb(0, 0, 0); stroke-opacity: 1;" class="stroke-shape"/></g><path d="M85.025,1.000L76.174,15.000" class="fills"/><g class="strokes"><path d="M85.025,1.000L76.174,15.000" style="fill: none; stroke-width: 0.5; stroke: rgb(0, 0, 0); stroke-opacity: 1;" class="stroke-shape"/></g><path d="M88.958,1.000L80.108,15.000" class="fills"/><g class="strokes"><path d="M88.958,1.000L80.108,15.000" style="fill: none; stroke-width: 0.5; stroke: rgb(0, 0, 0); stroke-opacity: 1;" class="stroke-shape"/></g></g></svg>