<svg width="108" xmlns="http://www.w3.org/2000/svg" height="108" fill="none"><g class="fills"><rect rx="0" ry="0" width="108" height="108" transform="matrix(1.000000, 0.000000, 0.000000, 1.000000, 0.000000, 0.000000)" class="frame-background"/></g><g class="frame-children"><path d="M0.000,108.000L0.000,88.000L10.465,88.000L20.000,88.000L20.000,108.000L0.000,108.000Z" style="fill: rgb(199, 49, 95); fill-opacity: 1;" class="fills"/><rect rx="0" ry="0" x="44" y="88" transform="matrix(0.000000, -1.000000, 1.000000, 0.000000, -44.000000, 152.000000)" width="20" height="20" style="fill: rgb(221, 221, 221); fill-opacity: 1;" class="fills"/><rect rx="0" ry="0" x="22" y="88" transform="matrix(0.000000, -1.000000, 1.000000, 0.000000, -66.000000, 130.000000)" width="20" height="20" style="fill: rgb(199, 49, 95); fill-opacity: 1;" class="fills"/><path d="M0.000,86.000L0.000,66.000L20.000,66.000L20.000,86.000L0.000,86.000Z" style="fill: rgb(199, 49, 95); fill-opacity: 1;" class="fills"/><rect rx="0" ry="0" x="66" y="88" transform="matrix(0.000000, -1.000000, 1.000000, 0.000000, -22.000000, 174.000000)" width="20" height="20" style="fill: rgb(199, 49, 95); fill-opacity: 1;" class="fills"/><rect rx="0" ry="0" x="88" y="88" transform="matrix(0.000000, -1.000000, 1.000000, 0.000000, 0.000000, 196.000000)" width="20" height="20" style="fill: rgb(199, 49, 95); fill-opacity: 1;" class="fills"/><rect rx="0" ry="0" x="44" y="66" transform="matrix(0.000000, -1.000000, 1.000000, 0.000000, -22.000000, 130.000000)" width="20" height="20" style="fill: rgb(221, 221, 221); fill-opacity: 1;" class="fills"/><rect rx="0" ry="0" x="22" y="66" transform="matrix(0.000000, -1.000000, 1.000000, 0.000000, -44.000000, 108.000000)" width="20" height="20" style="fill: rgb(221, 221, 221); fill-opacity: 1;" class="fills"/><rect rx="0" ry="0" y="44" transform="matrix(0.000000, -1.000000, 1.000000, 0.000000, -44.000000, 64.000000)" width="20" height="20" style="fill: rgb(221, 221, 221); fill-opacity: 1;" class="fills"/><path d="M66.000,86.000L66.000,66.000L75.393,66.000L86.000,66.000L86.000,86.000L66.000,86.000Z" style="fill: rgb(221, 221, 221); fill-opacity: 1;" class="fills"/><rect rx="0" ry="0" x="22" y="44" transform="matrix(0.000000, -1.000000, 1.000000, 0.000000, -22.000000, 86.000000)" width="20" height="20" style="fill: rgb(221, 221, 221); fill-opacity: 1;" class="fills"/><rect rx="0" ry="0" x="88" y="66" transform="matrix(0.000000, -1.000000, 1.000000, 0.000000, 22.000000, 174.000000)" width="20" height="20" style="fill: rgb(199, 49, 95); fill-opacity: 1;" class="fills"/><rect rx="0" ry="0" y="22" transform="matrix(0.000000, -1.000000, 1.000000, 0.000000, -22.000000, 42.000000)" width="20" height="20" style="fill: rgb(199, 49, 95); fill-opacity: 1;" class="fills"/><path d="M22.000,42.000L22.000,22.000L42.000,22.000L42.000,42.000L22.000,42.000Z" style="fill: rgb(221, 221, 221); fill-opacity: 1;" class="fills"/><rect rx="0" ry="0" transform="matrix(0.000000, -1.000000, 1.000000, 0.000000, 0.000000, 20.000000)" width="20" height="20" style="fill: rgb(199, 49, 95); fill-opacity: 1;" class="fills"/><rect rx="0" ry="0" x="66" y="44" transform="matrix(0.000000, -1.000000, 1.000000, 0.000000, 22.000000, 131.000000)" width="21" height="21" style="fill: rgb(221, 221, 221); fill-opacity: 1;" class="fills"/><rect rx="0" ry="0" x="88" y="44" transform="matrix(0.000000, -1.000000, 1.000000, 0.000000, 44.000000, 152.000000)" width="20" height="20" style="fill: rgb(221, 221, 221); fill-opacity: 1;" class="fills"/><path d="M44.000,64.000L44.000,44.000L64.000,44.000L64.000,64.000L44.000,64.000Z" style="fill: rgb(221, 221, 221); fill-opacity: 1;" class="fills"/><rect rx="0" ry="0" x="22" transform="matrix(0.000000, -1.000000, 1.000000, 0.000000, 22.000000, 42.000000)" width="20" height="20" style="fill: rgb(199, 49, 95); fill-opacity: 1;" class="fills"/><rect rx="0" ry="0" x="66" transform="matrix(0.000000, -1.000000, 1.000000, 0.000000, 66.000000, 86.000000)" width="20" height="20" style="fill: rgb(199, 49, 95); fill-opacity: 1;" class="fills"/><path d="M88.000,20.000L88.000,0.000L108.000,0.000L108.000,20.000L88.000,20.000Z" style="fill: rgb(199, 49, 95); fill-opacity: 1;" class="fills"/><rect rx="0" ry="0" x="44" y="22" transform="matrix(0.000000, -1.000000, 1.000000, 0.000000, 22.000000, 86.000000)" width="20" height="20" style="fill: rgb(221, 221, 221); fill-opacity: 1;" class="fills"/><rect rx="0" ry="0" x="66" y="22" transform="matrix(0.000000, -1.000000, 1.000000, 0.000000, 44.000000, 108.000000)" width="20" height="20" style="fill: rgb(221, 221, 221); fill-opacity: 1;" class="fills"/><path d="M88.000,42.000L88.000,22.000L108.000,22.000L108.000,32.086L108.000,42.000L88.000,42.000Z" style="fill: rgb(199, 49, 95); fill-opacity: 1;" class="fills"/><rect rx="0" ry="0" x="44" transform="matrix(0.000000, -1.000000, 1.000000, 0.000000, 44.000000, 64.000000)" width="20" height="20" style="fill: rgb(221, 221, 221); fill-opacity: 1;" class="fills"/></g></svg>