<svg width="104" xmlns="http://www.w3.org/2000/svg" height="104" fill="none"><g class="fills"><rect rx="0" ry="0" width="104" height="104" transform="matrix(0.000000, -1.000000, 1.000000, 0.000000, -0.000000, 104.000000)" class="frame-background"/></g><g class="frame-children"><path d="M-0.000,104.000L-0.000,84.000L20.000,84.000L20.000,104.000L-0.000,104.000Z" style="fill: rgb(221, 221, 221); fill-opacity: 1;" class="fills"/><rect rx="0" ry="0" x="42" y="84" transform="matrix(0.000000, -1.000000, 1.000000, 0.000000, -42.000000, 146.000000)" width="20" height="20" style="fill: rgb(221, 221, 221); fill-opacity: 1;" class="fills"/><rect rx="0" ry="0" x="21" y="84" transform="matrix(0.000000, -1.000000, 1.000000, 0.000000, -63.000000, 125.000000)" width="20" height="20" style="fill: rgb(221, 221, 221); fill-opacity: 1;" class="fills"/><path d="M-0.000,83.000L-0.000,63.000L20.000,63.000L20.000,83.000L-0.000,83.000Z" style="fill: rgb(221, 221, 221); fill-opacity: 1;" class="fills"/><rect rx="0" ry="0" x="63" y="84" transform="matrix(0.000000, -1.000000, 1.000000, 0.000000, -21.000000, 167.000000)" width="20" height="20" style="fill: rgb(221, 221, 221); fill-opacity: 1;" class="fills"/><rect rx="0" ry="0" x="84" y="84" transform="matrix(0.000000, -1.000000, 1.000000, 0.000000, 0.000000, 188.000000)" width="20" height="20" style="fill: rgb(199, 49, 95); fill-opacity: 1;" class="fills"/><rect rx="0" ry="0" x="42" y="63" transform="matrix(0.000000, -1.000000, 1.000000, 0.000000, -21.000000, 125.000000)" width="20" height="20" style="fill: rgb(221, 221, 221); fill-opacity: 1;" class="fills"/><rect rx="0" ry="0" x="21" y="63" transform="matrix(0.000000, -1.000000, 1.000000, 0.000000, -42.000000, 104.000000)" width="20" height="20" style="fill: rgb(221, 221, 221); fill-opacity: 1;" class="fills"/><rect rx="0" ry="0" y="42" transform="matrix(0.000000, -1.000000, 1.000000, 0.000000, -42.000000, 62.000000)" width="20" height="20" style="fill: rgb(221, 221, 221); fill-opacity: 1;" class="fills"/><rect rx="0" ry="0" x="63" y="63" transform="matrix(0.000000, -1.000000, 1.000000, 0.000000, -0.000000, 146.000000)" width="20" height="20" style="fill: rgb(199, 49, 95); fill-opacity: 1;" class="fills"/><rect rx="0" ry="0" x="21" y="42" transform="matrix(0.000000, -1.000000, 1.000000, 0.000000, -21.000000, 83.000000)" width="20" height="20" style="fill: rgb(221, 221, 221); fill-opacity: 1;" class="fills"/><rect rx="0" ry="0" x="84" y="63" transform="matrix(0.000000, -1.000000, 1.000000, 0.000000, 21.000000, 167.000000)" width="20" height="20" style="fill: rgb(221, 221, 221); fill-opacity: 1;" class="fills"/><rect rx="0" ry="0" y="21" transform="matrix(0.000000, -1.000000, 1.000000, 0.000000, -21.000000, 41.000000)" width="20" height="20" style="fill: rgb(221, 221, 221); fill-opacity: 1;" class="fills"/><path d="M21.000,41.000L21.000,21.000L41.000,21.000L41.000,41.000L21.000,41.000Z" style="fill: rgb(199, 49, 95); fill-opacity: 1;" class="fills"/><rect rx="0" ry="0" transform="matrix(0.000000, -1.000000, 1.000000, 0.000000, 0.000000, 20.000000)" width="20" height="20" style="fill: rgb(199, 49, 95); fill-opacity: 1;" class="fills"/><rect rx="0" ry="0" x="63" y="42" transform="matrix(0.000000, -1.000000, 1.000000, 0.000000, 21.000000, 125.000000)" width="20" height="20" style="fill: rgb(221, 221, 221); fill-opacity: 1;" class="fills"/><rect rx="0" ry="0" x="84" y="42" transform="matrix(0.000000, -1.000000, 1.000000, 0.000000, 42.000000, 146.000000)" width="20" height="20" style="fill: rgb(221, 221, 221); fill-opacity: 1;" class="fills"/><path d="M42.000,62.000L42.000,42.000L62.000,42.000L62.000,62.000L42.000,62.000Z" style="fill: rgb(199, 49, 95); fill-opacity: 1;" class="fills"/><rect rx="0" ry="0" x="21" transform="matrix(0.000000, -1.000000, 1.000000, 0.000000, 21.000000, 41.000000)" width="20" height="20" style="fill: rgb(221, 221, 221); fill-opacity: 1;" class="fills"/><rect rx="0" ry="0" x="63" transform="matrix(0.000000, -1.000000, 1.000000, 0.000000, 63.000000, 83.000000)" width="20" height="20" style="fill: rgb(221, 221, 221); fill-opacity: 1;" class="fills"/><rect rx="0" ry="0" x="84" transform="matrix(0.000000, -1.000000, 1.000000, 0.000000, 84.000000, 104.000000)" width="20" height="20" style="fill: rgb(221, 221, 221); fill-opacity: 1;" class="fills"/><rect rx="0" ry="0" x="42" y="21" transform="matrix(0.000000, -1.000000, 1.000000, 0.000000, 21.000000, 83.000000)" width="20" height="20" style="fill: rgb(221, 221, 221); fill-opacity: 1;" class="fills"/><rect rx="0" ry="0" x="63" y="21" transform="matrix(0.000000, -1.000000, 1.000000, 0.000000, 42.000000, 104.000000)" width="20" height="20" style="fill: rgb(221, 221, 221); fill-opacity: 1;" class="fills"/><rect rx="0" ry="0" x="84" y="21" transform="matrix(0.000000, -1.000000, 1.000000, 0.000000, 63.000000, 125.000000)" width="20" height="20" style="fill: rgb(221, 221, 221); fill-opacity: 1;" class="fills"/><rect rx="0" ry="0" x="42" transform="matrix(0.000000, -1.000000, 1.000000, 0.000000, 42.000000, 62.000000)" width="20" height="20" style="fill: rgb(221, 221, 221); fill-opacity: 1;" class="fills"/></g></svg>