<svg width="108" xmlns="http://www.w3.org/2000/svg" height="108" fill="none"><g class="fills"><rect rx="0" ry="0" width="108" height="108" transform="matrix(1.000000, 0.000000, 0.000000, 1.000000, 0.000000, 0.000000)" class="frame-background"/></g><g class="frame-children"><rect rx="0" ry="0" x="44" y="88" transform="matrix(0.000000, -1.000000, 1.000000, 0.000000, -44.000000, 152.000000)" width="20" height="20" style="fill: rgb(221, 221, 221); fill-opacity: 1;" class="fills"/><rect rx="0" ry="0" x="22" y="88" transform="matrix(0.000000, -1.000000, 1.000000, 0.000000, -66.000000, 130.000000)" width="20" height="20" style="fill: rgb(221, 221, 221); fill-opacity: 1;" class="fills"/><rect rx="0" ry="0" x="66" y="88" transform="matrix(0.000000, -1.000000, 1.000000, 0.000000, -22.000000, 174.000000)" width="20" height="20" style="fill: rgb(221, 221, 221); fill-opacity: 1;" class="fills"/><rect rx="0" ry="0" x="88" y="88" transform="matrix(0.000000, -1.000000, 1.000000, 0.000000, 0.000000, 196.000000)" width="20" height="20" style="fill: rgb(221, 221, 221); fill-opacity: 1;" class="fills"/><rect rx="0" ry="0" y="88" transform="matrix(0.000000, -1.000000, 1.000000, 0.000000, -88.000000, 108.000000)" width="20" height="20" style="fill: rgb(199, 49, 95); fill-opacity: 1;" class="fills"/><rect rx="0" ry="0" x="44" y="66" transform="matrix(0.000000, -1.000000, 1.000000, 0.000000, -22.000000, 130.000000)" width="20" height="20" style="fill: rgb(221, 221, 221); fill-opacity: 1;" class="fills"/><rect rx="0" ry="0" x="22" y="66" transform="matrix(0.000000, -1.000000, 1.000000, 0.000000, -44.000000, 108.000000)" width="20" height="20" style="fill: rgb(221, 221, 221); fill-opacity: 1;" class="fills"/><rect rx="0" ry="0" y="66" transform="matrix(0.000000, -1.000000, 1.000000, 0.000000, -66.000000, 86.000000)" width="20" height="20" style="fill: rgb(199, 49, 95); fill-opacity: 1;" class="fills"/><rect rx="0" ry="0" x="22" y="44" transform="matrix(0.000000, -1.000000, 1.000000, 0.000000, -22.000000, 86.000000)" width="20" height="20" style="fill: rgb(221, 221, 221); fill-opacity: 1;" class="fills"/><rect rx="0" ry="0" x="66" y="66" transform="matrix(0.000000, -1.000000, 1.000000, 0.000000, 0.000000, 152.000000)" width="20" height="20" style="fill: rgb(221, 221, 221); fill-opacity: 1;" class="fills"/><rect rx="0" ry="0" x="44" y="44" transform="matrix(0.000000, -1.000000, 1.000000, 0.000000, -0.000000, 108.000000)" width="20" height="20" style="fill: rgb(221, 221, 221); fill-opacity: 1;" class="fills"/><rect rx="0" ry="0" x="22" y="22" transform="matrix(0.000000, -1.000000, 1.000000, 0.000000, -0.000000, 64.000000)" width="20" height="20" style="fill: rgb(221, 221, 221); fill-opacity: 1;" class="fills"/><rect rx="0" ry="0" x="88" y="66" transform="matrix(0.000000, -1.000000, 1.000000, 0.000000, 22.000000, 174.000000)" width="20" height="20" style="fill: rgb(221, 221, 221); fill-opacity: 1;" class="fills"/><path d="M0.000,42.000L0.000,22.000L20.000,22.000L20.000,42.000L0.000,42.000Z" style="fill: rgb(199, 49, 95); fill-opacity: 1;" class="fills"/><rect rx="0" ry="0" transform="matrix(0.000000, -1.000000, 1.000000, 0.000000, 0.000000, 20.000000)" width="20" height="20" style="fill: rgb(199, 49, 95); fill-opacity: 1;" class="fills"/><rect rx="0" ry="0" x="66" y="44" transform="matrix(0.000000, -1.000000, 1.000000, 0.000000, 22.000000, 130.000000)" width="20" height="20" style="fill: rgb(221, 221, 221); fill-opacity: 1;" class="fills"/><rect rx="0" ry="0" x="88" y="44" transform="matrix(0.000000, -1.000000, 1.000000, 0.000000, 44.000000, 152.000000)" width="20" height="20" style="fill: rgb(221, 221, 221); fill-opacity: 1;" class="fills"/><path d="M0.000,64.000L0.000,44.000L20.000,44.000L20.000,64.000L0.000,64.000Z" style="fill: rgb(199, 49, 95); fill-opacity: 1;" class="fills"/><rect rx="0" ry="0" x="22" transform="matrix(0.000000, -1.000000, 1.000000, 0.000000, 22.000000, 42.000000)" width="20" height="20" style="fill: rgb(221, 221, 221); fill-opacity: 1;" class="fills"/><rect rx="0" ry="0" x="66" transform="matrix(0.000000, -1.000000, 1.000000, 0.000000, 66.000000, 86.000000)" width="20" height="20" style="fill: rgb(221, 221, 221); fill-opacity: 1;" class="fills"/><rect rx="0" ry="0" x="88" transform="matrix(0.000000, -1.000000, 1.000000, 0.000000, 88.000000, 108.000000)" width="20" height="20" style="fill: rgb(221, 221, 221); fill-opacity: 1;" class="fills"/><rect rx="0" ry="0" x="44" y="22" transform="matrix(0.000000, -1.000000, 1.000000, 0.000000, 22.000000, 86.000000)" width="20" height="20" style="fill: rgb(221, 221, 221); fill-opacity: 1;" class="fills"/><rect rx="0" ry="0" x="66" y="22" transform="matrix(0.000000, -1.000000, 1.000000, 0.000000, 44.000000, 108.000000)" width="20" height="20" style="fill: rgb(221, 221, 221); fill-opacity: 1;" class="fills"/><rect rx="0" ry="0" x="88" y="22" transform="matrix(0.000000, -1.000000, 1.000000, 0.000000, 66.000000, 130.000000)" width="20" height="20" style="fill: rgb(221, 221, 221); fill-opacity: 1;" class="fills"/><rect rx="0" ry="0" x="44" transform="matrix(0.000000, -1.000000, 1.000000, 0.000000, 44.000000, 64.000000)" width="20" height="20" style="fill: rgb(221, 221, 221); fill-opacity: 1;" class="fills"/></g></svg>