<svg width="104" xmlns="http://www.w3.org/2000/svg" height="104" fill="none"><g class="fills"><rect rx="0" ry="0" width="104" height="104" transform="matrix(1.000000, 0.000000, 0.000000, 1.000000, 0.000000, 0.000000)" class="frame-background"/></g><g class="frame-children"><rect rx="0" ry="0" transform="matrix(1.000000, 0.000000, 0.000000, 1.000000, 0.000000, 0.000000)" width="20" height="20" style="fill: rgb(199, 49, 95); fill-opacity: 1;" class="fills"/><rect rx="0" ry="0" y="42" transform="matrix(1.000000, 0.000000, 0.000000, 1.000000, 0.000000, 0.000000)" width="20" height="20" style="fill: rgb(221, 221, 221); fill-opacity: 1;" class="fills"/><rect rx="0" ry="0" y="21" transform="matrix(1.000000, 0.000000, 0.000000, 1.000000, 0.000000, 0.000000)" width="20" height="20" style="fill: rgb(221, 221, 221); fill-opacity: 1;" class="fills"/><rect rx="0" ry="0" x="21" transform="matrix(1.000000, 0.000000, 0.000000, 1.000000, 0.000000, 0.000000)" width="20" height="20" style="fill: rgb(199, 49, 95); fill-opacity: 1;" class="fills"/><rect rx="0" ry="0" y="63" transform="matrix(1.000000, 0.000000, 0.000000, 1.000000, 0.000000, 0.000000)" width="20" height="20" style="fill: rgb(221, 221, 221); fill-opacity: 1;" class="fills"/><rect rx="0" ry="0" y="84" transform="matrix(1.000000, 0.000000, 0.000000, 1.000000, 0.000000, 0.000000)" width="20" height="20" style="fill: rgb(221, 221, 221); fill-opacity: 1;" class="fills"/><rect rx="0" ry="0" x="21" y="42" transform="matrix(1.000000, 0.000000, 0.000000, 1.000000, 0.000000, 0.000000)" width="20" height="20" style="fill: rgb(221, 221, 221); fill-opacity: 1;" class="fills"/><rect rx="0" ry="0" x="21" y="21" transform="matrix(1.000000, 0.000000, 0.000000, 1.000000, 0.000000, 0.000000)" width="20" height="20" style="fill: rgb(221, 221, 221); fill-opacity: 1;" class="fills"/><rect rx="0" ry="0" x="42" transform="matrix(1.000000, 0.000000, 0.000000, 1.000000, 0.000000, 0.000000)" width="20" height="20" style="fill: rgb(199, 49, 95); fill-opacity: 1;" class="fills"/><rect rx="0" ry="0" x="21" y="63" transform="matrix(1.000000, 0.000000, 0.000000, 1.000000, 0.000000, 0.000000)" width="20" height="20" style="fill: rgb(221, 221, 221); fill-opacity: 1;" class="fills"/><rect rx="0" ry="0" x="42" y="21" transform="matrix(1.000000, 0.000000, 0.000000, 1.000000, 0.000000, 0.000000)" width="20" height="20" style="fill: rgb(221, 221, 221); fill-opacity: 1;" class="fills"/><rect rx="0" ry="0" x="21" y="84" transform="matrix(1.000000, 0.000000, 0.000000, 1.000000, 0.000000, 0.000000)" width="20" height="20" style="fill: rgb(221, 221, 221); fill-opacity: 1;" class="fills"/><rect rx="0" ry="0" x="63" transform="matrix(1.000000, 0.000000, 0.000000, 1.000000, 0.000000, 0.000000)" width="20" height="20" style="fill: rgb(199, 49, 95); fill-opacity: 1;" class="fills"/><rect rx="0" ry="0" x="63" y="21" transform="matrix(1.000000, 0.000000, 0.000000, 1.000000, 0.000000, 0.000000)" width="20" height="20" style="fill: rgb(221, 221, 221); fill-opacity: 1;" class="fills"/><rect rx="0" ry="0" x="84" transform="matrix(1.000000, 0.000000, 0.000000, 1.000000, 0.000000, 0.000000)" width="20" height="20" style="fill: rgb(199, 49, 95); fill-opacity: 1;" class="fills"/><rect rx="0" ry="0" x="42" y="63" transform="matrix(1.000000, 0.000000, 0.000000, 1.000000, 0.000000, 0.000000)" width="20" height="20" style="fill: rgb(221, 221, 221); fill-opacity: 1;" class="fills"/><rect rx="0" ry="0" x="42" y="84" transform="matrix(1.000000, 0.000000, 0.000000, 1.000000, 0.000000, 0.000000)" width="20" height="20" style="fill: rgb(221, 221, 221); fill-opacity: 1;" class="fills"/><rect rx="0" ry="0" x="42" y="42" transform="matrix(1.000000, 0.000000, 0.000000, 1.000000, 0.000000, 0.000000)" width="20" height="20" style="fill: rgb(221, 221, 221); fill-opacity: 1;" class="fills"/><rect rx="0" ry="0" x="84" y="21" transform="matrix(1.000000, 0.000000, 0.000000, 1.000000, 0.000000, 0.000000)" width="20" height="20" style="fill: rgb(221, 221, 221); fill-opacity: 1;" class="fills"/><rect rx="0" ry="0" x="84" y="63" transform="matrix(1.000000, 0.000000, 0.000000, 1.000000, 0.000000, 0.000000)" width="20" height="20" style="fill: rgb(221, 221, 221); fill-opacity: 1;" class="fills"/><rect rx="0" ry="0" x="84" y="84" transform="matrix(1.000000, 0.000000, 0.000000, 1.000000, 0.000000, 0.000000)" width="20" height="20" style="fill: rgb(221, 221, 221); fill-opacity: 1;" class="fills"/><rect rx="0" ry="0" x="63" y="42" transform="matrix(1.000000, 0.000000, 0.000000, 1.000000, 0.000000, 0.000000)" width="20" height="20" style="fill: rgb(221, 221, 221); fill-opacity: 1;" class="fills"/><rect rx="0" ry="0" x="63" y="63" transform="matrix(1.000000, 0.000000, 0.000000, 1.000000, 0.000000, 0.000000)" width="20" height="20" style="fill: rgb(221, 221, 221); fill-opacity: 1;" class="fills"/><rect rx="0" ry="0" x="63" y="84" transform="matrix(1.000000, 0.000000, 0.000000, 1.000000, 0.000000, 0.000000)" width="20" height="20" style="fill: rgb(221, 221, 221); fill-opacity: 1;" class="fills"/><rect rx="0" ry="0" x="84" y="42" transform="matrix(1.000000, 0.000000, 0.000000, 1.000000, 0.000000, 0.000000)" width="20" height="20" style="fill: rgb(221, 221, 221); fill-opacity: 1;" class="fills"/></g></svg>